<svg width="413" height="91" viewBox="0 0 413 91" fill="none" xmlns="http://www.w3.org/2000/svg">
<path opacity="0.5" d="M84.8236 34.9581C83.1173 30.1369 77.9643 26.6102 71.808 26.4345C69.9515 18.2155 61.4883 12 51.3187 12C43.9884 12 37.5523 15.2279 33.8257 20.1018C31.9829 19.352 29.9353 18.9185 27.7581 18.9185C19.9774 18.9185 13.6709 24.3021 13.6709 30.9453C13.6709 32.3512 13.9712 33.6928 14.4899 34.9523H10.4357C4.67526 34.9523 0 38.9417 0 43.8625C0 48.7834 4.67526 52.7728 10.4357 52.7728H19.7385C23.7381 56.5806 29.5463 58.9824 36.0098 58.9824C40.4052 58.9824 44.4935 57.8694 47.9197 55.9596C50.4041 57.8459 53.6734 59 57.2566 59C62.5735 59 67.201 56.4868 69.5966 52.7728H84.5643C90.3247 52.7728 95 48.7834 95 43.8625C95 39.012 90.4681 35.0753 84.8236 34.9581Z" fill="#E7ECFF"/>
<path opacity="0.5" d="M402.824 58.9581C401.117 54.1369 395.964 50.6102 389.808 50.4345C387.952 42.2155 379.488 36 369.319 36C361.988 36 355.552 39.2279 351.826 44.1018C349.983 43.352 347.935 42.9185 345.758 42.9185C337.977 42.9185 331.671 48.3021 331.671 54.9453C331.671 56.3512 331.971 57.6928 332.49 58.9523H328.436C322.675 58.9523 318 62.9417 318 67.8625C318 72.7834 322.675 76.7728 328.436 76.7728H337.738C341.738 80.5806 347.546 82.9824 354.01 82.9824C358.405 82.9824 362.493 81.8694 365.92 79.9596C368.404 81.8459 371.673 83 375.257 83C380.573 83 385.201 80.4868 387.597 76.7728H402.564C408.325 76.7728 413 72.7834 413 67.8625C413 63.012 408.468 59.0753 402.824 58.9581Z" fill="#E7ECFF"/>
<path opacity="0.5" d="M328.058 11.9667H326.73C324.599 8.09501 319.958 5.40618 314.56 5.40618C312.603 5.40618 310.748 5.76722 309.072 6.4038C307.917 2.72209 303.943 0 299.212 0C294.811 0 291.072 2.35154 289.637 5.64371C289.424 5.6342 289.217 5.6152 289.004 5.6152C284.29 5.6152 280.332 8.30879 279.161 11.9715H278.931C275.657 11.9715 273 14.209 273 16.9739C273 19.7387 275.657 21.9762 278.931 21.9762H283.23C284.318 26.5511 289.11 30 294.862 30C299.324 30 303.203 27.924 305.232 24.8551C307.648 26.8314 310.939 28.0523 314.571 28.0523C319.739 28.0523 324.218 25.5867 326.466 21.9762H328.069C331.349 21.9762 334 19.7387 334 16.9739C334 14.209 331.337 11.9667 328.058 11.9667Z" fill="#BAC3E5"/>
<path d="M298.824 25.9581C297.117 21.1369 291.964 17.6102 285.808 17.4345C283.952 9.21551 275.488 3 265.319 3C257.988 3 251.552 6.22785 247.826 11.1018C245.983 10.352 243.935 9.91849 241.758 9.91849C233.977 9.91849 227.671 15.3021 227.671 21.9453C227.671 23.3512 227.971 24.6928 228.49 25.9523H224.436C218.675 25.9523 214 29.9417 214 34.8625C214 39.7834 218.675 43.7728 224.436 43.7728H233.738C237.738 47.5806 243.546 49.9824 250.01 49.9824C254.405 49.9824 258.493 48.8694 261.92 46.9596C264.404 48.8459 267.673 50 271.257 50C276.573 50 281.201 47.4868 283.597 43.7728H298.564C304.325 43.7728 309 39.7834 309 34.8625C309 30.012 304.468 26.0753 298.824 25.9581Z" fill="#E7ECFF"/>
<path opacity="0.5" d="M215.058 52.9667H213.73C211.599 49.095 206.958 46.4062 201.56 46.4062C199.603 46.4062 197.748 46.7672 196.072 47.4038C194.917 43.7221 190.943 41 186.212 41C181.811 41 178.072 43.3515 176.637 46.6437C176.424 46.6342 176.217 46.6152 176.004 46.6152C171.29 46.6152 167.332 49.3088 166.161 52.9715H165.931C162.657 52.9715 160 55.209 160 57.9739C160 60.7387 162.657 62.9762 165.931 62.9762H170.23C171.318 67.5511 176.11 71 181.862 71C186.324 71 190.203 68.924 192.232 65.8551C194.648 67.8314 197.939 69.0523 201.571 69.0523C206.739 69.0523 211.218 66.5867 213.466 62.9762H215.069C218.349 62.9762 221 60.7387 221 57.9739C221 55.209 218.337 52.9667 215.058 52.9667Z" fill="#BAC3E5"/>
<path d="M185.824 66.9581C184.117 62.1369 178.964 58.6102 172.808 58.4345C170.952 50.2155 162.488 44 152.319 44C144.988 44 138.552 47.2279 134.826 52.1018C132.983 51.352 130.935 50.9185 128.758 50.9185C120.977 50.9185 114.671 56.3021 114.671 62.9453C114.671 64.3512 114.971 65.6928 115.49 66.9523H111.436C105.675 66.9523 101 70.9417 101 75.8625C101 80.7834 105.675 84.7728 111.436 84.7728H120.738C124.738 88.5806 130.546 90.9824 137.01 90.9824C141.405 90.9824 145.493 89.8694 148.92 87.9596C151.404 89.8459 154.673 91 158.257 91C163.573 91 168.201 88.4868 170.597 84.7728H185.564C191.325 84.7728 196 80.7834 196 75.8625C196 71.012 191.468 67.0753 185.824 66.9581Z" fill="#E7ECFF"/>
</svg>
