<svg width="414" height="463" viewBox="0 0 414 463" fill="none" xmlns="http://www.w3.org/2000/svg">
<g opacity="0.15">
<path opacity="0.090909" d="M61.7083 364.555L157.255 327.813C162.636 324.7 169.42 323.03 176.203 323.112C179.131 323.153 181.915 323.524 184.471 324.164C186.904 324.762 189.75 325.957 191.729 327.091L262.327 368.452C262.389 368.494 264.451 369.71 264.492 369.751C270.08 373.112 272.636 378.329 272.327 383.999C272.018 389.772 267.667 396.329 261.399 399.937L202.636 456.535C197.358 459.586 190.739 461.257 184.059 461.257C178.244 461.257 172.925 459.999 168.76 457.586L59.8939 393.71C54.4093 390.535 51.2959 385.566 51.3165 380.04C51.3165 374.019 55.1104 368.37 61.7083 364.555Z" fill="#9FA5D0"/>
<path opacity="0.1818" d="M62.1184 364.638L157.665 327.895C163.026 324.802 169.809 323.174 176.531 323.318C179.438 323.38 182.201 323.833 184.716 324.514C186.902 325.091 190.098 326.493 191.871 327.524L262.077 368.658C262.222 368.741 264.119 369.875 264.222 369.957C269.686 373.359 271.5 378.555 270.902 384.122C270.325 389.297 265.521 396.493 259.892 399.751L202.201 455.833C197.046 458.803 190.593 460.431 184.077 460.452C178.407 460.473 173.211 459.236 169.149 456.906L60.2833 392.39C55.0255 389.339 52.0771 384.617 52.1183 379.38C52.1802 373.648 55.7885 368.287 62.1184 364.638Z" fill="#8F95BB"/>
<path opacity="0.2727" d="M62.5332 364.72L158.08 327.978C163.42 324.905 170.224 323.338 176.863 323.524C179.77 323.627 182.492 324.143 184.987 324.844C186.925 325.38 190.492 327.029 192.059 327.936L261.874 368.844C262.08 368.967 263.853 370.019 263.997 370.163C269.337 373.627 270.43 378.72 269.502 384.225C268.74 388.782 263.399 396.637 258.389 399.524L201.791 455.091C196.76 457.998 190.451 459.565 184.121 459.586C178.595 459.607 173.523 458.431 169.564 456.143L60.6981 390.988C55.6466 388.081 52.8837 383.586 52.9662 378.637C53.0486 373.277 56.492 368.204 62.5332 364.72Z" fill="#7F84A7"/>
<path opacity="0.3636" d="M62.9447 364.782L158.491 328.04C163.811 324.968 170.636 323.462 177.172 323.73C180.058 323.854 182.759 324.452 185.213 325.174C186.904 325.669 190.821 327.545 192.203 328.349L261.646 369.029C261.914 369.194 263.543 370.163 263.749 370.349C268.966 373.854 270.533 379.236 268.1 384.328C268.1 388.37 261.275 396.782 256.883 399.318L201.357 454.37C196.45 457.194 190.306 458.741 184.161 458.761C178.78 458.782 173.811 457.648 169.976 455.421L61.1097 389.627C56.2849 386.844 53.687 382.576 53.7901 377.937C53.9138 372.906 57.1922 368.122 62.9447 364.782Z" fill="#6F7492"/>
<path opacity="0.4545" d="M63.3779 364.865L158.924 328.122C164.223 325.071 171.048 323.607 177.522 323.937C180.409 324.102 183.069 324.761 185.481 325.504C186.924 325.937 191.213 328.081 192.388 328.762L261.44 369.215C261.77 369.401 263.275 370.329 263.522 370.555C268.615 374.122 269.77 379.524 266.718 384.452C266.718 387.916 259.172 396.947 255.419 399.112L200.966 453.648C196.203 456.411 190.182 457.896 184.223 457.937C178.986 457.958 174.141 456.865 170.409 454.72L61.5428 388.287C56.9449 385.628 54.5119 381.607 54.6356 377.256C54.7799 372.535 57.8727 368.04 63.3779 364.865Z" fill="#5F637D"/>
<path opacity="0.5455" d="M63.791 364.947L159.337 328.204C164.595 325.173 171.461 323.751 177.853 324.143C180.719 324.328 183.358 325.07 185.75 325.833C186.946 326.204 191.585 328.596 192.575 329.173L261.255 369.4C261.667 369.627 263.008 370.472 263.317 370.741C268.286 374.349 269.008 379.792 265.338 384.555C265.338 387.442 257.07 397.091 253.935 398.885L200.575 452.906C195.935 455.586 190.08 457.029 184.286 457.071C179.214 457.112 174.471 456.06 170.843 453.957L61.9766 386.864C57.6054 384.349 55.3373 380.555 55.5023 376.472C55.626 372.163 58.5745 367.936 63.791 364.947Z" fill="#505368"/>
<path opacity="0.6364" d="M64.2036 365.009L159.75 328.267C164.987 325.236 171.874 323.875 178.162 324.349C181.028 324.576 183.606 325.38 185.977 326.184C186.925 326.493 191.936 329.153 192.719 329.607L261.008 369.627C261.482 369.896 262.699 370.658 263.049 370.968C267.895 374.638 268.183 380.122 263.915 384.7C263.915 387.009 254.925 397.277 252.431 398.72L200.142 452.226C195.626 454.844 189.915 456.246 184.307 456.287C179.379 456.329 174.76 455.318 171.235 453.298L62.3686 385.566C58.2242 383.174 56.1211 379.628 56.3067 375.834C56.4923 371.772 59.2757 367.854 64.2036 365.009Z" fill="#404253"/>
<path opacity="0.7273" d="M64.6151 365.091L160.162 328.349C165.378 325.339 172.265 324.019 178.492 324.555C181.337 324.803 183.894 325.689 186.223 326.514C186.925 326.762 192.285 329.669 192.883 330.019L260.801 369.813C261.337 370.122 262.409 370.803 262.821 371.174C267.543 374.885 267.399 380.411 262.533 384.803C262.533 386.535 252.822 397.421 250.945 398.494L199.729 451.483C195.337 454.019 189.791 455.38 184.347 455.421C179.564 455.463 175.069 454.494 171.646 452.535L62.7801 384.164C58.8626 381.896 56.9244 378.597 57.1306 375.091C57.3574 371.401 59.9553 367.772 64.6151 365.091Z" fill="#30323E"/>
<path opacity="0.8182" d="M65.0294 365.174L160.576 328.431C165.772 325.442 172.679 324.163 178.823 324.782C181.669 325.07 184.184 326.019 186.493 326.864C186.968 327.029 192.679 330.225 193.071 330.452L260.597 370.019C261.194 370.369 262.122 370.988 262.576 371.38C267.174 375.153 266.617 380.699 261.112 384.926C261.112 386.081 250.679 397.586 249.421 398.308L199.298 450.782C195.03 453.235 189.627 454.555 184.39 454.617C179.751 454.679 175.359 453.751 172.06 451.833L63.1943 382.823C59.5036 380.679 57.7304 377.627 57.9778 374.411C58.2252 371.029 60.6582 367.689 65.0294 365.174Z" fill="#20212A"/>
<path opacity="0.9091" d="M65.4384 365.236L160.985 328.493C166.16 325.504 173.088 324.287 179.15 324.967C181.975 325.277 184.449 326.308 186.738 327.174C186.964 327.256 193.026 330.72 193.232 330.844L260.366 370.184C261.047 370.576 261.83 371.112 262.325 371.565C266.799 375.38 265.81 380.988 259.707 385.029C259.707 385.607 248.552 397.73 247.933 398.081L198.882 450.06C194.738 452.452 189.5 453.71 184.428 453.792C179.954 453.854 175.665 452.968 172.469 451.133L63.6034 381.462C60.1395 379.462 58.5312 376.638 58.7992 373.71C59.0879 370.658 61.3559 367.607 65.4384 365.236Z" fill="#101115"/>
<path opacity="0.15" d="M172.883 450.39L64.0168 380.081C57.4601 376.287 58.2849 369.689 65.8519 365.318L161.398 328.576C168.965 324.205 180.429 323.73 186.965 327.524L260.12 370.39C266.677 374.184 265.852 380.782 258.285 385.153L198.45 449.339C190.883 453.689 179.44 454.163 172.883 450.39Z" fill="black"/>
</g>
<path d="M172.886 450.225L64.0197 387.009C61.0918 385.318 59.6485 383.071 59.5867 380.72C59.5867 380.638 59.5867 365.483 59.5867 365.421C59.6485 362.555 61.7516 367.524 65.8547 365.174L161.401 328.431C168.968 324.06 180.432 323.586 186.968 327.38L260.123 370.246C262.309 371.504 263.896 366.143 264.473 367.854C264.659 368.432 264.535 383.029 264.556 383.607C264.618 386.555 262.494 389.669 258.288 392.081L198.453 449.194C190.886 453.545 179.442 454.019 172.886 450.225Z" fill="#BAC3E5"/>
<path d="M172.886 435.091L64.0195 371.875C57.4628 368.081 58.2875 361.483 65.8546 357.112L161.401 320.37C168.968 315.999 180.432 315.524 186.968 319.318L260.123 362.184C266.68 365.978 265.855 372.576 258.288 376.947L198.453 434.061C190.886 438.39 179.442 438.865 172.886 435.091Z" fill="#E7ECFF"/>
<path d="M260.144 362.143L186.989 319.277C180.432 315.483 168.989 315.957 161.422 320.328L113.298 338.844C113.752 339.194 114.226 339.545 114.783 339.875L223.649 403.091C225.154 403.957 226.927 404.597 228.845 405.03L258.329 376.906C265.876 372.535 266.7 365.937 260.144 362.143Z" fill="url(#paint0_linear_437_2931)"/>
<path d="M258.308 375.545L198.473 432.658C190.906 437.03 179.442 437.504 172.906 433.71L64.0399 370.493C61.3183 368.926 59.8956 366.865 59.6688 364.679C59.3182 367.359 60.7616 369.957 64.0399 371.854L172.906 435.566C179.463 439.359 190.906 438.885 198.473 434.514L258.308 376.906C262.741 374.349 264.844 371.03 264.514 367.957C264.184 370.617 262.081 373.359 258.308 375.545Z" fill="white"/>
<path d="M315.115 435.442L47.754 280.967C34.0839 273.071 23.0117 251.895 23.0117 233.689V29.1941C23.0117 10.9673 34.0839 2.59612 47.754 10.493L315.115 164.967C328.785 172.864 339.857 194.04 339.857 212.246V416.72C339.857 434.947 328.785 443.318 315.115 435.442Z" fill="url(#paint1_linear_437_2931)"/>
<path d="M318.309 421.194L54.7213 268.906C43.7316 261.916 36.9275 247.937 36.9275 233.648V27.8539C36.9275 24.4724 40.6182 22.3693 43.5254 24.0807C43.876 24.2869 44.144 24.4312 44.3089 24.5343L308.185 177.009C321.278 184.555 325.979 197.978 325.979 212.266V417.442C325.979 421.071 322.062 423.359 318.887 421.545C318.639 421.38 318.433 421.277 318.309 421.194Z" fill="#505F98"/>
<path d="M308.167 176.988L44.2902 24.5135C44.1252 24.4104 43.8572 24.2661 43.5066 24.0599C40.5788 22.3486 36.9087 24.4517 36.9087 27.8331V233.648C36.9087 247.936 43.7128 261.916 54.7025 268.906L318.29 421.194C318.414 421.277 318.62 421.38 318.868 421.524C322.022 423.318 325.961 421.05 325.961 417.421V212.246C325.961 197.957 321.26 184.555 308.167 176.988ZM323.177 417.421C323.177 418.638 322.167 419.38 321.218 419.38C320.888 419.38 320.559 419.297 320.249 419.112L56.1046 266.514C46.1665 260.204 39.6922 247.277 39.6922 233.668V27.8537C39.6922 26.864 40.5376 26.2455 41.3005 26.2455C41.5685 26.2455 41.8571 26.328 42.1046 26.4723L306.765 179.421C320.332 187.235 323.177 201.606 323.177 212.266V417.421Z" fill="#AFB6E5"/>
<path d="M326.515 158.349L59.1535 3.87474C53.7514 0.761337 48.7411 0.18402 44.6793 1.75103C44.1638 1.95722 32.8855 8.51392 32.3906 8.78196C32.3906 8.78196 32.37 8.80259 32.3494 8.80259C36.5762 6.74073 41.937 7.13248 47.7515 10.4933L315.112 164.968C328.783 172.865 339.855 194.04 339.855 212.246V416.72C339.855 428.102 335.546 435.628 328.968 437.772C329.504 437.793 330.164 437.587 331.133 437.03C331.442 436.844 343.319 429.731 343.607 429.525C348.308 426.226 351.236 419.463 351.236 410.102V205.628C351.257 187.421 340.164 166.246 326.515 158.349Z" fill="url(#paint2_linear_437_2931)"/>
<path d="M326.289 158.494L58.9481 3.99902C53.546 0.885614 48.5357 0.308284 44.4738 1.8753C43.9584 2.08148 32.8862 8.49386 32.3914 8.7619C32.3914 8.7619 32.3707 8.78252 32.3501 8.78252C36.5769 6.72066 41.9378 7.11242 47.7522 10.4732L315.113 164.948C328.783 172.845 339.856 194.02 339.856 212.226V416.7C339.856 428.082 335.546 435.608 328.969 437.752C329.505 437.773 330.165 437.566 331.134 437.01C331.443 436.824 343.113 429.855 343.402 429.649C348.103 426.35 351.031 419.587 351.031 410.226V205.772C351.051 187.546 339.959 166.37 326.289 158.494Z" fill="url(#paint3_linear_437_2931)"/>
<path d="M326.082 158.618L58.7213 4.14354C53.3192 1.03014 48.3089 0.452819 44.2471 2.01983C43.7316 2.22602 32.8656 8.49407 32.3914 8.76211C32.3914 8.76211 32.3707 8.78272 32.3501 8.78272C36.5769 6.72086 41.9378 7.11262 47.7522 10.4734L315.113 164.948C328.783 172.845 339.856 194.02 339.856 212.226V416.701C339.856 428.082 335.546 435.608 328.969 437.752C329.505 437.773 330.165 437.567 331.134 437.01C331.443 436.824 342.887 430 343.196 429.773C347.897 426.474 350.825 419.711 350.825 410.35V205.876C350.845 187.69 339.753 166.515 326.082 158.618Z" fill="url(#paint4_linear_437_2931)"/>
<path d="M325.876 158.762L58.5151 4.28734C53.113 1.17393 48.1027 0.596617 44.0409 2.16363C43.5254 2.36981 32.8656 8.51415 32.3914 8.78219C32.3914 8.78219 32.3707 8.80281 32.3501 8.80281C36.5769 6.74096 41.9378 7.13271 47.7522 10.4935L315.113 164.968C328.783 172.865 339.856 194.04 339.856 212.246V416.721C339.856 428.102 335.546 435.628 328.969 437.772C329.505 437.793 330.165 437.587 331.134 437.03C331.443 436.844 342.68 430.143 342.99 429.937C347.691 426.638 350.618 419.875 350.618 410.515V206.04C350.639 187.834 339.546 166.659 325.876 158.762Z" fill="url(#paint5_linear_437_2931)"/>
<path d="M325.67 158.906L58.3089 4.41064C52.9068 1.29723 47.8965 0.719905 43.8347 2.28692C43.3192 2.4931 32.8656 8.49311 32.3914 8.76115C32.3914 8.76115 32.3707 8.78177 32.3501 8.78177C36.5769 6.71991 41.9378 7.11167 47.7522 10.4725L315.113 164.947C328.783 172.844 339.856 194.019 339.856 212.225V416.7C339.856 428.081 335.546 435.607 328.969 437.751C329.505 437.772 330.165 437.566 331.134 437.009C331.443 436.823 342.474 430.267 342.783 430.061C347.484 426.762 350.412 419.999 350.412 410.638V206.184C350.412 187.957 339.34 166.782 325.67 158.906Z" fill="#929ECC"/>
<path d="M325.464 159.03L58.1027 4.55516C52.7007 1.44176 47.6904 0.86444 43.6285 2.43145C43.113 2.63764 32.8656 8.49332 32.3914 8.76136C32.3914 8.76136 32.3707 8.78197 32.3501 8.78197C36.5769 6.72011 41.9378 7.11187 47.7522 10.4727L315.113 164.947C328.783 172.844 339.855 194.019 339.855 212.225V416.7C339.855 428.081 335.546 435.607 328.969 437.751C329.505 437.772 330.165 437.566 331.134 437.009C331.443 436.824 342.268 430.411 342.577 430.184C347.278 426.885 350.206 420.123 350.206 410.762V206.287C350.206 188.102 339.134 166.926 325.464 159.03Z" fill="url(#paint6_linear_437_2931)"/>
<path d="M325.258 159.174L57.8965 4.69921C52.4945 1.5858 47.4842 1.00848 43.4223 2.57549C42.9068 2.78168 32.8862 8.51364 32.3914 8.78168C32.3914 8.78168 32.3707 8.80231 32.3501 8.80231C36.5769 6.74045 41.9378 7.13221 47.7522 10.493L315.113 164.967C328.783 172.864 339.856 194.04 339.856 212.246V416.72C339.856 428.102 335.546 435.627 328.969 437.772C329.505 437.792 330.165 437.586 331.134 437.03C331.443 436.844 342.062 430.555 342.371 430.349C347.072 427.05 350 420.287 350 410.926V206.452C350 188.246 338.928 167.071 325.258 159.174Z" fill="url(#paint7_linear_437_2931)"/>
<path d="M325.051 159.318L57.6904 4.82324C52.2883 1.70983 47.278 1.1325 43.2161 2.69951C42.7007 2.9057 32.8862 8.49334 32.3914 8.76138C32.3914 8.76138 32.3707 8.78199 32.3501 8.78199C36.5769 6.72014 41.9378 7.11189 47.7522 10.4727L315.113 164.947C328.783 172.844 339.855 194.019 339.855 212.225V416.7C339.855 428.081 335.546 435.607 328.969 437.751C329.505 437.772 330.165 437.566 331.134 437.009C331.443 436.824 341.856 430.679 342.144 430.473C346.845 427.174 349.773 420.411 349.773 411.05V206.597C349.794 188.37 338.722 167.195 325.051 159.318Z" fill="url(#paint8_linear_437_2931)"/>
<path d="M324.845 159.442L57.4842 4.96727C52.0821 1.85387 47.0718 1.27655 43.0099 2.84356C42.4945 3.04975 32.8862 8.49305 32.3914 8.76109C32.3914 8.76109 32.3707 8.78171 32.3501 8.78171C36.5769 6.71985 41.9378 7.11161 47.7522 10.4724L315.113 164.947C328.783 172.844 339.856 194.019 339.856 212.225V416.7C339.856 428.081 335.546 435.607 328.969 437.751C329.505 437.772 330.165 437.566 331.134 437.009C331.443 436.823 341.649 430.823 341.938 430.597C346.639 427.298 349.567 420.535 349.567 411.174V206.699C349.588 188.514 338.515 167.339 324.845 159.442Z" fill="url(#paint9_linear_437_2931)"/>
<path d="M324.412 159.731L57.0718 5.23559C51.6697 2.12219 46.6594 1.54486 42.5976 3.11187C42.0821 3.31805 32.8862 8.49332 32.3914 8.76136C32.3914 8.76136 32.3707 8.78198 32.3501 8.78198C36.5769 6.72012 41.9378 7.11187 47.7522 10.4727L315.113 164.947C328.783 172.844 339.855 194.019 339.855 212.225V416.7C339.855 428.081 335.546 435.607 328.969 437.751C329.505 437.772 330.165 437.566 331.134 437.009C331.443 436.824 341.237 431.092 341.526 430.885C346.227 427.586 349.154 420.824 349.154 411.463V207.009C349.175 188.782 338.082 167.607 324.412 159.731Z" fill="url(#paint10_linear_437_2931)"/>
<path d="M324.206 159.854L56.845 5.37987C51.4429 2.26646 46.4326 1.68915 42.3707 3.25616C41.8553 3.46234 32.8656 8.49328 32.3914 8.76132C32.3914 8.76132 32.3707 8.78193 32.3501 8.78193C36.5769 6.72008 41.9378 7.11183 47.7522 10.4727L315.113 164.947C328.783 172.844 339.856 194.019 339.856 212.225V416.7C339.856 428.081 335.546 435.607 328.969 437.751C329.505 437.772 330.165 437.566 331.134 437.009C331.443 436.824 341.031 431.236 341.319 431.009C346.02 427.71 348.948 420.947 348.948 411.586V207.112C348.969 188.926 337.876 167.751 324.206 159.854Z" fill="url(#paint11_linear_437_2931)"/>
<path d="M324 159.999L56.6388 5.5244C51.2367 2.411 46.2264 1.83368 42.1646 3.40069C41.6491 3.60688 32.8656 8.51409 32.3914 8.78213C32.3914 8.78213 32.3707 8.80276 32.3501 8.80276C36.5769 6.7409 41.9378 7.13266 47.7522 10.4935L315.113 164.968C328.783 172.865 339.855 194.04 339.855 212.246V416.721C339.855 428.102 335.546 435.628 328.969 437.772C329.505 437.793 330.165 437.587 331.134 437.03C331.443 436.844 340.804 431.38 341.113 431.174C345.814 427.875 348.742 421.112 348.742 411.752V207.277C348.763 189.071 337.67 167.896 324 159.999Z" fill="url(#paint12_linear_437_2931)"/>
<path d="M323.794 160.143L56.4326 5.6477C51.0305 2.5343 46.0202 1.95697 41.9584 3.52398C41.4429 3.73016 32.8656 8.49306 32.3914 8.7611C32.3914 8.7611 32.3707 8.78171 32.3501 8.78171C36.5769 6.71986 41.9378 7.11161 47.7522 10.4724L315.113 164.947C328.783 172.844 339.856 194.019 339.856 212.225V416.7C339.856 428.081 335.546 435.607 328.969 437.751C329.505 437.772 330.165 437.566 331.134 437.009C331.443 436.823 340.598 431.504 340.907 431.298C345.608 427.999 348.536 421.236 348.536 411.875V207.421C348.536 189.194 337.464 168.019 323.794 160.143Z" fill="url(#paint13_linear_437_2931)"/>
<path d="M323.587 160.267L56.2264 5.79222C50.8244 2.67882 45.814 2.1015 41.7522 3.66851C41.2367 3.8747 32.8656 8.49326 32.3914 8.7613C32.3914 8.7613 32.3707 8.78192 32.3501 8.78192C36.5769 6.72006 41.9378 7.11181 47.7522 10.4726L315.113 164.947C328.783 172.844 339.856 194.019 339.856 212.225V416.7C339.856 428.081 335.546 435.607 328.969 437.751C329.505 437.772 330.165 437.566 331.134 437.009C331.443 436.824 340.392 431.648 340.701 431.421C345.402 428.122 348.33 421.36 348.33 411.999V207.524C348.33 189.339 337.258 168.164 323.587 160.267Z" fill="url(#paint14_linear_437_2931)"/>
<path d="M323.381 160.411L56.0202 5.93651C50.6182 2.8231 45.6079 2.24579 41.546 3.8128C41.0305 4.01898 32.8862 8.51383 32.3914 8.78187C32.3914 8.78187 32.3707 8.8025 32.3501 8.8025C36.5769 6.74064 41.9378 7.13239 47.7522 10.4932L315.113 164.968C328.783 172.864 339.856 194.04 339.856 212.246V416.72C339.856 428.102 335.546 435.628 328.969 437.772C329.505 437.793 330.165 437.586 331.134 437.03C331.443 436.844 340.185 431.793 340.495 431.586C345.196 428.287 348.124 421.524 348.124 412.164V207.689C348.124 189.483 337.051 168.308 323.381 160.411Z" fill="url(#paint15_linear_437_2931)"/>
<path d="M323.175 160.555L55.814 6.0603C50.412 2.94689 45.4017 2.36956 41.3398 3.93657C40.8244 4.14276 32.8862 8.49329 32.3914 8.76133C32.3914 8.76133 32.3707 8.78194 32.3501 8.78194C36.5769 6.72008 41.9378 7.11184 47.7522 10.4727L315.113 164.947C328.783 172.844 339.855 194.019 339.855 212.225V416.7C339.855 428.081 335.546 435.607 328.969 437.751C329.505 437.772 330.165 437.566 331.134 437.009C331.443 436.824 339.979 431.916 340.268 431.71C344.969 428.411 347.897 421.648 347.897 412.288V207.834C347.917 189.607 336.845 168.432 323.175 160.555Z" fill="url(#paint16_linear_437_2931)"/>
<path d="M322.969 160.679L55.6079 6.20433C50.2058 3.09093 45.1955 2.51361 41.1336 4.08062C40.6182 4.28681 32.8862 8.493 32.3914 8.76104C32.3914 8.76104 32.3707 8.78165 32.3501 8.78165C36.5769 6.7198 41.9378 7.11155 47.7522 10.4724L315.113 164.947C328.783 172.844 339.855 194.019 339.855 212.225V416.7C339.855 428.081 335.546 435.607 328.969 437.751C329.505 437.772 330.165 437.566 331.134 437.009C331.443 436.823 339.773 432.06 340.062 431.834C344.763 428.535 347.691 421.772 347.691 412.411V207.936C347.711 189.751 336.639 168.576 322.969 160.679Z" fill="url(#paint17_linear_437_2931)"/>
<path d="M322.763 160.823L55.4017 6.34911C49.9996 3.2357 44.9893 2.65838 40.9274 4.2254C40.412 4.43158 32.8862 8.51406 32.3914 8.7821C32.3914 8.7821 32.3707 8.80272 32.3501 8.80272C36.5769 6.74087 41.9378 7.13262 47.7522 10.4934L315.113 164.968C328.783 172.865 339.856 194.04 339.856 212.246V416.721C339.856 428.102 335.546 435.628 328.969 437.772C329.505 437.793 330.165 437.587 331.134 437.03C331.443 436.844 339.567 432.205 339.856 431.999C344.557 428.7 347.484 421.937 347.484 412.576V208.102C347.505 189.896 336.412 168.72 322.763 160.823Z" fill="url(#paint18_linear_437_2931)"/>
<path d="M322.536 160.968L55.1955 6.47265C49.7934 3.35925 44.7831 2.78192 40.7213 4.34893C40.2058 4.55511 32.8862 8.49327 32.3914 8.76131C32.3914 8.76131 32.3707 8.78192 32.3501 8.78192C36.5769 6.72006 41.9378 7.11182 47.7522 10.4726L315.113 164.947C328.783 172.844 339.856 194.019 339.856 212.225V416.7C339.856 428.081 335.546 435.607 328.969 437.751C329.505 437.772 330.165 437.566 331.134 437.009C331.443 436.824 339.361 432.329 339.649 432.122C344.35 428.824 347.278 422.061 347.278 412.7V208.246C347.299 190.019 336.206 168.844 322.536 160.968Z" fill="url(#paint19_linear_437_2931)"/>
<path d="M322.33 161.091L54.9687 6.61693C49.5666 3.50352 44.5563 2.92621 40.4944 4.49322C39.979 4.6994 32.8656 8.49323 32.3914 8.76127C32.3914 8.76127 32.3707 8.78188 32.3501 8.78188C36.5769 6.72002 41.9378 7.11178 47.7522 10.4726L315.113 164.947C328.783 172.844 339.855 194.019 339.855 212.225V416.7C339.855 428.081 335.546 435.607 328.969 437.751C329.505 437.772 330.165 437.566 331.134 437.009C331.443 436.824 339.154 432.473 339.443 432.246C344.144 428.947 347.072 422.184 347.072 412.823V208.349C347.093 190.163 336 168.988 322.33 161.091Z" fill="url(#paint20_linear_437_2931)"/>
<path d="M322.124 161.236L54.7625 6.76146C49.3605 3.64806 44.3501 3.07074 40.2882 4.63775C39.7728 4.84394 32.8656 8.51404 32.3914 8.78208C32.3914 8.78208 32.3707 8.8027 32.3501 8.8027C36.5769 6.74085 41.9378 7.1326 47.7522 10.4934L315.113 164.968C328.783 172.865 339.855 194.04 339.855 212.246V416.721C339.855 428.102 335.546 435.628 328.969 437.772C329.505 437.793 330.165 437.587 331.134 437.03C331.443 436.844 338.928 432.617 339.237 432.411C343.938 429.112 346.866 422.349 346.866 412.989V208.514C346.886 190.308 335.794 169.133 322.124 161.236Z" fill="#BAC3E5"/>
<path d="M316.31 164.37L48.9492 9.89518C43.3409 6.65806 38.1863 6.20445 34.042 7.99827C37.5884 7.44157 41.6502 8.28694 45.9801 10.8024L313.341 165.277C327.011 173.174 338.083 194.349 338.083 212.555V417.03C338.083 427.772 334.207 435.071 328.248 437.648C335.877 436.432 341.053 428.597 341.053 416.143V211.669C341.053 193.442 329.98 172.266 316.31 164.37Z" fill="white"/>
<g opacity="0.3">
<path opacity="0.381" d="M264.123 309.854C259.236 307.03 255.257 309.298 255.257 314.906V327.875C255.257 333.483 259.216 340.329 264.123 343.153L296.37 361.937C301.257 364.762 307.195 362.184 307.195 356.576V343.607C307.195 337.999 301.277 331.463 296.37 328.638L264.123 309.854Z" fill="#8F92CC"/>
<path opacity="0.4372" d="M263.856 310.246C258.99 307.442 255.052 309.69 255.052 315.277V327.607C255.052 333.195 258.99 339.999 263.856 342.803L295.815 361.421C300.681 364.226 306.413 361.71 306.413 356.123V343.793C306.413 338.205 300.681 331.69 295.815 328.865L263.856 310.246Z" fill="#8A8DC8"/>
<path opacity="0.4935" d="M263.588 310.638C258.743 307.834 254.825 310.081 254.825 315.648V327.359C254.825 332.926 258.743 339.689 263.588 342.494L295.258 360.947C300.104 363.751 305.63 361.256 305.63 355.689V343.978C305.63 338.411 300.104 331.896 295.258 329.112L263.588 310.638Z" fill="#8687C5"/>
<path opacity="0.5498" d="M263.34 311.03C258.515 308.246 254.618 310.473 254.618 315.999V327.092C254.618 332.617 258.515 339.36 263.34 342.143L294.721 360.432C299.546 363.215 304.865 360.762 304.865 355.236V344.143C304.865 338.617 299.525 332.102 294.721 329.318L263.34 311.03Z" fill="#8182C1"/>
<path opacity="0.6061" d="M263.074 311.422C258.27 308.659 254.394 310.865 254.394 316.37V326.844C254.394 332.349 258.291 339.05 263.074 341.813L294.167 359.937C298.971 362.7 304.105 360.288 304.105 354.782V344.329C304.105 338.824 298.971 332.308 294.167 329.545L263.074 311.422Z" fill="#7C7DBD"/>
<path opacity="0.6623" d="M262.804 311.834C258.042 309.071 254.165 311.277 254.165 316.762V326.617C254.165 332.102 258.042 338.762 262.804 341.524L293.609 359.483C298.372 362.246 303.32 359.854 303.32 354.39V344.535C303.32 339.05 298.392 332.555 293.609 329.792L262.804 311.834Z" fill="#7778B9"/>
<path opacity="0.7186" d="M262.537 312.226C257.795 309.483 253.939 311.669 253.939 317.133V326.37C253.939 331.813 257.795 338.453 262.537 341.195L293.052 358.968C297.795 361.71 302.537 359.38 302.537 353.917V344.679C302.537 339.236 297.795 332.741 293.052 329.999L262.537 312.226Z" fill="#7372B6"/>
<path opacity="0.7749" d="M262.288 312.617C257.567 309.895 253.732 312.081 253.732 317.504V326.102C253.732 331.524 257.567 338.122 262.288 340.865L292.515 358.473C297.237 361.194 301.773 358.906 301.773 353.483V344.885C301.773 339.462 297.237 332.968 292.515 330.246L262.288 312.617Z" fill="#6E6DB2"/>
<path opacity="0.8312" d="M262.021 313.009C257.32 310.288 253.505 312.473 253.505 317.855V325.834C253.505 331.236 257.32 337.793 262.021 340.514L291.938 357.958C296.639 360.679 300.99 358.411 300.99 353.03V345.05C300.99 339.648 296.639 333.174 291.938 330.452L262.021 313.009Z" fill="#6968AE"/>
<path opacity="0.8874" d="M261.753 313.401C257.073 310.7 253.279 312.864 253.279 318.225V325.586C253.279 330.947 257.073 337.483 261.753 340.184L291.382 357.462C296.063 360.163 300.207 357.937 300.207 352.576V345.215C300.207 339.854 296.063 333.359 291.382 330.658L261.753 313.401Z" fill="#6463AA"/>
<path opacity="0.9437" d="M261.483 313.792C256.823 311.112 253.05 313.256 253.05 318.597V325.339C253.05 330.679 256.823 337.174 261.483 339.875L290.824 356.988C295.483 359.669 299.421 357.504 299.421 352.164V345.421C299.421 340.081 295.463 333.607 290.824 330.926L261.483 313.792Z" fill="#605DA7"/>
<path opacity="0.3" d="M261.238 314.184C256.619 311.504 252.866 313.648 252.866 318.968V325.091C252.866 330.411 256.619 336.885 261.238 339.545L290.289 356.494C294.908 359.174 298.66 357.03 298.66 351.71V345.586C298.66 340.267 294.908 333.793 290.289 331.133L261.238 314.184Z" fill="#5B58A3"/>
</g>
<path d="M295.897 361.524L258.763 339.937C254.763 337.628 251.484 331.38 251.484 326.04V318.164C251.484 312.823 254.763 310.349 258.763 312.658L295.897 334.246C299.897 336.555 303.175 342.803 303.175 348.143V356.019C303.175 361.36 299.897 363.834 295.897 361.524Z" fill="#37447E"/>
<path d="M295.897 334.246L258.763 312.658C254.763 310.349 251.484 312.823 251.484 318.164V318.988C251.484 313.648 254.763 311.174 258.763 313.483L295.897 335.071C299.897 337.38 303.175 343.628 303.175 348.968V348.143C303.175 342.823 299.897 336.555 295.897 334.246Z" fill="url(#paint21_radial_437_2931)"/>
<path d="M295.897 334.246L276.845 323.153V350.432L295.897 361.524C299.897 363.834 303.175 361.36 303.175 356.019V348.143C303.175 342.823 299.897 336.555 295.897 334.246Z" fill="#37447E"/>
<path d="M278.639 339.978C278.391 339.978 278.144 339.895 277.938 339.751L276.041 338.349C275.526 337.957 275.422 337.236 275.814 336.699C276.206 336.184 276.928 336.081 277.464 336.473L279.34 337.875C279.855 338.266 279.958 338.988 279.587 339.524C279.361 339.813 279.01 339.978 278.639 339.978Z" fill="url(#paint22_linear_437_2931)"/>
<path d="M376.184 381.256C375.545 381.256 375.008 380.741 375.008 380.101C375.008 379.462 375.524 378.926 376.163 378.926C377.751 378.906 379.276 378.823 380.699 378.679C381.359 378.617 381.916 379.071 381.998 379.71C382.06 380.349 381.606 380.926 380.967 381.009C379.462 381.153 377.854 381.256 376.184 381.256ZM371.503 381.112C371.483 381.112 371.441 381.112 371.421 381.112C369.916 381.009 368.328 380.864 366.699 380.658C366.06 380.576 365.606 379.998 365.689 379.339C365.771 378.699 366.369 378.246 367.008 378.328C368.575 378.534 370.122 378.679 371.586 378.782C372.225 378.823 372.72 379.38 372.679 380.019C372.637 380.638 372.122 381.112 371.503 381.112ZM385.441 380.204C384.905 380.204 384.431 379.854 384.307 379.318C384.163 378.699 384.534 378.06 385.173 377.895C386.699 377.524 388.122 377.029 389.359 376.452C389.957 376.184 390.637 376.431 390.905 377.029C391.173 377.607 390.926 378.308 390.328 378.576C388.947 379.215 387.38 379.751 385.71 380.163C385.627 380.205 385.524 380.204 385.441 380.204ZM362.246 379.957C362.184 379.957 362.101 379.957 362.039 379.936C360.534 379.668 358.988 379.359 357.421 379.009C356.782 378.864 356.39 378.246 356.534 377.607C356.679 376.967 357.297 376.596 357.936 376.72C359.483 377.071 360.988 377.38 362.472 377.627C363.112 377.751 363.524 378.349 363.421 378.988C363.297 379.545 362.802 379.957 362.246 379.957ZM353.132 377.916C353.029 377.916 352.926 377.895 352.823 377.875C351.338 377.483 349.833 377.05 348.287 376.596C347.668 376.411 347.318 375.751 347.503 375.132C347.689 374.514 348.328 374.163 348.967 374.349C350.472 374.802 351.957 375.215 353.421 375.607C354.039 375.771 354.411 376.411 354.246 377.029C354.122 377.565 353.648 377.916 353.132 377.916ZM393.751 376.184C393.421 376.184 393.091 376.04 392.864 375.792C392.431 375.297 392.493 374.555 392.967 374.143C394.06 373.194 394.947 372.081 395.606 370.864C395.916 370.287 396.617 370.081 397.194 370.39C397.771 370.699 397.978 371.4 397.668 371.978C396.885 373.462 395.813 374.782 394.493 375.916C394.307 376.101 394.039 376.184 393.751 376.184ZM344.184 375.256C344.06 375.256 343.936 375.235 343.813 375.194C342.349 374.699 340.864 374.184 339.38 373.648C338.761 373.421 338.452 372.761 338.679 372.143C338.905 371.524 339.586 371.215 340.184 371.442C341.668 371.978 343.112 372.493 344.555 372.967C345.173 373.174 345.503 373.833 345.297 374.452C345.132 374.947 344.678 375.256 344.184 375.256ZM335.4 372.06C335.256 372.06 335.112 372.04 334.967 371.978C333.524 371.421 332.081 370.823 330.617 370.204C330.019 369.957 329.751 369.256 329.998 368.679C330.246 368.081 330.926 367.813 331.524 368.06C332.967 368.679 334.411 369.256 335.813 369.813C336.411 370.04 336.72 370.72 336.472 371.339C336.307 371.792 335.874 372.06 335.4 372.06ZM326.782 368.452C326.617 368.452 326.452 368.411 326.307 368.349C324.905 367.71 323.483 367.07 322.039 366.39C321.462 366.122 321.194 365.421 321.483 364.823C321.751 364.246 322.452 363.978 323.05 364.266C324.472 364.926 325.874 365.586 327.276 366.205C327.874 366.473 328.142 367.153 327.874 367.751C327.668 368.184 327.235 368.452 326.782 368.452ZM398.101 368.163C398.039 368.163 397.978 368.163 397.916 368.143C397.276 368.04 396.844 367.442 396.926 366.802C397.05 366.04 397.091 365.235 397.091 364.411C397.091 363.771 397.05 363.112 396.988 362.452C396.926 361.813 397.4 361.235 398.039 361.174C398.679 361.091 399.256 361.586 399.318 362.225C399.4 362.967 399.441 363.71 399.441 364.431C399.441 365.38 399.38 366.308 399.235 367.174C399.173 367.751 398.679 368.163 398.101 368.163ZM318.349 364.473C318.163 364.473 317.998 364.431 317.833 364.349C316.452 363.648 315.05 362.947 313.648 362.225C313.07 361.916 312.843 361.215 313.153 360.637C313.462 360.06 314.163 359.833 314.74 360.143C316.122 360.864 317.503 361.565 318.885 362.246C319.462 362.534 319.709 363.235 319.421 363.813C319.194 364.225 318.782 364.473 318.349 364.473ZM310.06 360.143C309.874 360.143 309.689 360.101 309.503 359.998C308.142 359.256 306.782 358.493 305.4 357.71C304.843 357.38 304.637 356.679 304.967 356.101C305.297 355.545 305.998 355.339 306.575 355.668C307.936 356.452 309.276 357.194 310.637 357.936C311.215 358.246 311.421 358.967 311.111 359.524C310.885 359.916 310.472 360.143 310.06 360.143ZM397.297 358.926C396.782 358.926 396.307 358.596 396.163 358.06C395.792 356.699 395.297 355.256 394.699 353.771C394.452 353.174 394.74 352.493 395.338 352.246C395.936 351.998 396.617 352.287 396.864 352.885C397.503 354.452 398.019 355.978 398.431 357.421C398.596 358.04 398.246 358.699 397.606 358.864C397.503 358.906 397.4 358.926 397.297 358.926ZM301.957 355.503C301.751 355.503 301.544 355.442 301.359 355.338C300.019 354.555 298.699 353.73 297.359 352.906C296.802 352.576 296.637 351.854 296.988 351.297C297.318 350.741 298.039 350.576 298.596 350.926C299.916 351.751 301.256 352.555 302.575 353.339C303.132 353.668 303.318 354.39 302.988 354.947C302.74 355.297 302.349 355.503 301.957 355.503ZM293.998 350.596C293.771 350.596 293.565 350.534 293.359 350.411C292.06 349.565 290.74 348.72 289.441 347.833C288.905 347.483 288.761 346.741 289.111 346.204C289.462 345.668 290.204 345.524 290.74 345.875C292.039 346.741 293.338 347.586 294.637 348.431C295.173 348.782 295.338 349.503 294.988 350.06C294.761 350.411 294.39 350.596 293.998 350.596ZM393.833 350.266C393.4 350.266 392.988 350.04 392.782 349.627C392.122 348.308 391.38 346.967 390.575 345.607C390.246 345.05 390.431 344.328 390.988 343.998C391.545 343.668 392.266 343.854 392.596 344.411C393.421 345.813 394.204 347.215 394.885 348.576C395.173 349.153 394.947 349.854 394.369 350.143C394.204 350.225 394.019 350.266 393.833 350.266ZM286.245 345.421C286.019 345.421 285.792 345.359 285.586 345.215C284.307 344.328 283.029 343.442 281.751 342.514C281.215 342.143 281.111 341.4 281.483 340.885C281.854 340.349 282.596 340.246 283.111 340.617C284.39 341.524 285.648 342.411 286.926 343.297C287.462 343.668 287.586 344.39 287.215 344.926C286.967 345.235 286.617 345.421 286.245 345.421ZM389.112 342.225C388.74 342.225 388.349 342.04 388.142 341.71C387.318 340.473 386.452 339.215 385.503 337.916C385.132 337.4 385.235 336.658 385.771 336.287C386.287 335.895 387.029 336.019 387.4 336.555C388.349 337.875 389.256 339.174 390.081 340.431C390.431 340.967 390.287 341.689 389.751 342.06C389.565 342.163 389.338 342.225 389.112 342.225ZM383.648 334.658C383.297 334.658 382.947 334.493 382.72 334.204L379.854 330.514C379.462 329.998 379.544 329.277 380.06 328.864C380.575 328.473 381.318 328.555 381.709 329.07L384.576 332.761C384.967 333.277 384.885 334.019 384.369 334.411C384.143 334.576 383.895 334.658 383.648 334.658ZM377.916 327.277C377.565 327.277 377.215 327.112 376.988 326.823L374.122 323.132C373.73 322.617 373.813 321.895 374.328 321.483C374.844 321.091 375.586 321.174 375.978 321.689L378.843 325.38C379.235 325.895 379.153 326.637 378.637 327.029C378.431 327.194 378.184 327.277 377.916 327.277ZM372.184 319.895C371.833 319.895 371.483 319.73 371.256 319.442L368.39 315.751C367.998 315.235 368.081 314.514 368.596 314.101C369.112 313.71 369.833 313.792 370.246 314.308L373.112 317.998C373.503 318.514 373.421 319.235 372.905 319.648C372.699 319.813 372.431 319.895 372.184 319.895ZM366.452 312.534C366.101 312.534 365.751 312.369 365.524 312.081L362.658 308.39C362.266 307.875 362.349 307.153 362.864 306.741C363.38 306.349 364.101 306.431 364.514 306.947L367.38 310.637C367.771 311.153 367.689 311.875 367.173 312.287C366.947 312.452 366.699 312.534 366.452 312.534ZM360.72 305.153C360.369 305.153 360.019 304.988 359.792 304.699L356.926 301.009C356.534 300.493 356.617 299.751 357.132 299.359C357.648 298.967 358.39 299.05 358.782 299.565L361.648 303.256C362.039 303.771 361.957 304.514 361.441 304.905C361.215 305.07 360.967 305.153 360.72 305.153ZM354.988 297.771C354.637 297.771 354.287 297.607 354.06 297.318L351.215 293.627C350.823 293.112 350.926 292.369 351.421 291.978C351.936 291.586 352.679 291.689 353.07 292.184L355.916 295.875C356.307 296.39 356.225 297.132 355.71 297.524C355.483 297.689 355.235 297.771 354.988 297.771ZM349.297 290.369C348.947 290.369 348.596 290.204 348.369 289.916C347.421 288.679 346.472 287.442 345.524 286.204C345.132 285.689 345.235 284.947 345.751 284.555C346.266 284.163 347.008 284.266 347.4 284.782C348.328 285.998 349.276 287.235 350.225 288.493C350.617 289.009 350.514 289.751 349.998 290.143C349.792 290.308 349.545 290.369 349.297 290.369ZM343.627 282.947C343.276 282.947 342.926 282.782 342.699 282.493C341.751 281.235 340.802 279.998 339.874 278.761C339.483 278.246 339.586 277.503 340.101 277.112C340.617 276.72 341.359 276.823 341.751 277.338C342.679 278.576 343.606 279.813 344.555 281.07C344.947 281.586 344.843 282.328 344.328 282.72C344.122 282.864 343.874 282.947 343.627 282.947ZM338.019 275.483C337.668 275.483 337.318 275.318 337.07 275.009C336.122 273.751 335.194 272.493 334.287 271.256C333.895 270.74 334.019 269.998 334.534 269.606C335.05 269.215 335.792 269.338 336.184 269.854C337.091 271.091 338.019 272.349 338.967 273.606C339.359 274.122 339.256 274.864 338.72 275.256C338.514 275.421 338.266 275.483 338.019 275.483ZM332.472 267.978C332.101 267.978 331.751 267.813 331.524 267.503C330.596 266.225 329.689 264.967 328.782 263.71C328.41 263.173 328.514 262.452 329.05 262.081C329.586 261.71 330.307 261.813 330.678 262.349C331.586 263.606 332.493 264.864 333.421 266.122C333.792 266.637 333.689 267.38 333.173 267.751C332.947 267.895 332.72 267.978 332.472 267.978ZM327.029 260.39C326.658 260.39 326.307 260.225 326.081 259.895C325.173 258.617 324.266 257.338 323.4 256.06C323.029 255.524 323.153 254.802 323.689 254.431C324.225 254.06 324.947 254.184 325.318 254.72C326.204 255.978 327.091 257.256 327.998 258.534C328.369 259.07 328.245 259.792 327.709 260.163C327.503 260.308 327.256 260.39 327.029 260.39ZM321.689 252.72C321.318 252.72 320.947 252.534 320.72 252.204C319.833 250.905 318.967 249.606 318.101 248.328C317.751 247.792 317.895 247.07 318.431 246.699C318.967 246.349 319.689 246.493 320.06 247.029C320.905 248.307 321.771 249.586 322.658 250.885C323.029 251.421 322.885 252.143 322.349 252.514C322.142 252.658 321.916 252.72 321.689 252.72ZM316.514 244.947C316.122 244.947 315.751 244.761 315.524 244.411C314.658 243.091 313.833 241.771 313.008 240.472C312.658 239.916 312.823 239.194 313.38 238.864C313.936 238.514 314.658 238.679 314.988 239.235C315.813 240.534 316.637 241.833 317.483 243.153C317.833 243.689 317.689 244.431 317.132 244.782C316.967 244.885 316.74 244.947 316.514 244.947ZM311.544 237.029C311.153 237.029 310.761 236.823 310.534 236.472C309.709 235.112 308.905 233.771 308.142 232.452C307.813 231.895 307.998 231.173 308.555 230.844C309.111 230.514 309.833 230.699 310.163 231.256C310.926 232.576 311.73 233.916 312.534 235.256C312.864 235.813 312.699 236.534 312.142 236.864C311.957 236.988 311.751 237.029 311.544 237.029ZM306.843 228.967C306.431 228.967 306.039 228.74 305.812 228.369C305.05 226.988 304.287 225.606 303.565 224.246C303.256 223.668 303.483 222.967 304.06 222.658C304.637 222.349 305.338 222.576 305.648 223.153C306.369 224.493 307.091 225.854 307.854 227.235C308.163 227.792 307.957 228.514 307.4 228.823C307.235 228.926 307.05 228.967 306.843 228.967ZM302.493 220.699C302.06 220.699 301.648 220.452 301.441 220.039C300.74 218.617 300.06 217.194 299.421 215.792C299.153 215.194 299.4 214.514 299.998 214.246C300.596 213.978 301.276 214.225 301.544 214.823C302.184 216.204 302.843 217.606 303.544 219.008C303.833 219.586 303.586 220.287 303.008 220.576C302.843 220.658 302.679 220.699 302.493 220.699ZM298.617 212.204C298.163 212.204 297.73 211.936 297.544 211.483C296.926 209.998 296.349 208.555 295.812 207.091C295.586 206.493 295.895 205.813 296.493 205.586C297.111 205.359 297.771 205.668 297.998 206.266C298.534 207.689 299.091 209.112 299.689 210.555C299.936 211.153 299.648 211.833 299.05 212.081C298.926 212.184 298.782 212.204 298.617 212.204ZM295.38 203.462C294.885 203.462 294.431 203.153 294.266 202.658C293.771 201.132 293.318 199.606 292.926 198.122C292.761 197.503 293.132 196.864 293.751 196.679C294.39 196.514 295.008 196.885 295.194 197.503C295.586 198.947 296.019 200.431 296.493 201.916C296.699 202.534 296.349 203.194 295.73 203.4C295.627 203.441 295.503 203.462 295.38 203.462ZM292.967 194.452C292.431 194.452 291.936 194.081 291.813 193.524C291.483 191.957 291.215 190.39 290.988 188.864C290.905 188.225 291.338 187.627 291.977 187.545C292.617 187.441 293.215 187.895 293.297 188.534C293.503 190.019 293.771 191.545 294.081 193.05C294.204 193.689 293.812 194.307 293.173 194.431C293.132 194.452 293.05 194.452 292.967 194.452ZM291.689 185.215C291.07 185.215 290.555 184.74 290.514 184.122C290.41 182.679 290.369 181.235 290.369 179.813V179.359C290.369 178.72 290.905 178.204 291.544 178.204C291.544 178.204 291.544 178.204 291.565 178.204C292.204 178.204 292.74 178.74 292.72 179.38V179.813C292.72 181.173 292.761 182.555 292.864 183.957C292.905 184.596 292.431 185.173 291.771 185.215C291.73 185.215 291.709 185.215 291.689 185.215ZM291.771 175.895C291.73 175.895 291.709 175.895 291.668 175.895C291.029 175.833 290.555 175.276 290.617 174.617C290.761 173.05 290.967 171.441 291.256 169.895C291.38 169.256 291.998 168.844 292.617 168.947C293.256 169.05 293.668 169.668 293.565 170.307C293.297 171.813 293.091 173.318 292.967 174.844C292.864 175.441 292.369 175.895 291.771 175.895ZM293.4 166.72C293.297 166.72 293.194 166.699 293.091 166.679C292.472 166.514 292.101 165.874 292.266 165.235C292.678 163.709 293.153 162.184 293.689 160.699C293.916 160.081 294.575 159.771 295.194 159.998C295.812 160.225 296.122 160.885 295.895 161.503C295.38 162.947 294.905 164.411 294.514 165.854C294.39 166.369 293.916 166.72 293.4 166.72ZM296.575 157.957C296.41 157.957 296.245 157.916 296.081 157.854C295.483 157.586 295.235 156.885 295.503 156.307C296.142 154.885 296.864 153.462 297.648 152.06C297.957 151.483 298.658 151.276 299.235 151.606C299.792 151.916 299.998 152.637 299.689 153.194C298.947 154.555 298.245 155.916 297.627 157.276C297.441 157.689 297.008 157.957 296.575 157.957ZM301.07 149.771C300.843 149.771 300.637 149.709 300.431 149.586C299.895 149.235 299.73 148.514 300.081 147.957C300.926 146.658 301.833 145.338 302.782 144.06C303.153 143.544 303.895 143.421 304.41 143.813C304.926 144.204 305.05 144.926 304.658 145.441C303.73 146.679 302.864 147.957 302.039 149.215C301.833 149.586 301.441 149.771 301.07 149.771ZM306.596 142.266C306.328 142.266 306.06 142.184 305.854 141.998C305.359 141.586 305.276 140.843 305.709 140.349C306.678 139.173 307.73 137.977 308.823 136.782C309.256 136.307 309.998 136.266 310.472 136.72C310.947 137.153 310.988 137.895 310.555 138.369C309.483 139.524 308.472 140.699 307.524 141.833C307.276 142.122 306.947 142.266 306.596 142.266ZM312.905 135.38C312.596 135.38 312.307 135.256 312.081 135.029C311.627 134.575 311.627 133.833 312.081 133.38C313.173 132.287 314.307 131.215 315.483 130.122C315.957 129.689 316.699 129.709 317.132 130.184C317.565 130.658 317.544 131.4 317.07 131.833C315.916 132.905 314.802 133.957 313.73 135.029C313.503 135.256 313.194 135.38 312.905 135.38ZM319.751 129.05C319.421 129.05 319.091 128.905 318.864 128.637C318.452 128.142 318.493 127.4 318.988 126.988C320.163 125.977 321.359 124.988 322.596 123.977C323.091 123.565 323.833 123.648 324.246 124.163C324.658 124.658 324.575 125.4 324.06 125.813C322.843 126.802 321.648 127.792 320.493 128.782C320.307 128.947 320.039 129.05 319.751 129.05Z" fill="#929ECC"/>
<path d="M327.155 123.07C326.805 123.07 326.454 122.905 326.228 122.617C325.836 122.101 325.939 121.359 326.454 120.967C327.073 120.493 327.712 120.019 328.351 119.545C328.867 119.153 329.609 119.277 330.001 119.792C330.392 120.307 330.269 121.05 329.753 121.441C329.114 121.916 328.495 122.369 327.898 122.844C327.65 123.008 327.403 123.07 327.155 123.07Z" fill="url(#paint23_linear_437_2931)"/>
<path d="M304.845 321.38L227.175 276.865V250.308L304.845 294.824V321.38Z" fill="#AFB6E5"/>
<path d="M230 275.813V251.937L227.175 250.308V276.865L304.845 321.38V318.679L230 275.813Z" fill="#AFB6E5"/>
<path d="M304.845 283.895L227.175 239.38V212.823L304.845 257.339V283.895Z" fill="#AFB6E5"/>
<path d="M230 238.308V214.452L227.175 212.823V239.38L304.845 283.895V281.194L230 238.308Z" fill="#AFB6E5"/>
<path opacity="0.01" d="M241.672 199.69L241.775 199.751L149.775 55.2977C145.383 48.3905 138.868 44.6379 134.455 46.4524L42.3727 84.638L42.4758 84.6998C41.4242 85.1741 40.7644 86.3493 40.7644 88.0813V230.824C40.7644 234.081 43.0737 238.061 45.8985 239.69L238.229 350.721C241.074 352.37 243.363 351.051 243.363 347.793V205.05C243.383 203.318 242.723 201.38 241.672 199.69Z" fill="black"/>
<path opacity="0.014286" d="M240.331 198.411L240.434 198.473L148.433 54.0194C144.042 47.1122 137.526 43.3596 133.114 45.174L41.0314 83.339L41.1344 83.4009C40.0829 83.8751 39.4231 85.0504 39.4231 86.7823V229.525C39.4231 232.782 41.7324 236.762 44.5572 238.391L236.887 349.422C239.733 351.071 242.021 349.752 242.021 346.494V203.751C242.042 202.02 241.361 200.081 240.331 198.411Z" fill="black"/>
<path opacity="0.021429" d="M238.97 197.112L239.073 197.174L147.073 52.7203C142.681 45.8131 136.166 42.0605 131.754 43.875L39.671 82.0606L39.774 82.1224C38.7225 82.5967 38.0627 83.7719 38.0627 85.5039V228.246C38.0627 231.504 40.372 235.483 43.1967 237.112L235.527 348.143C238.372 349.793 240.661 348.473 240.661 345.215V202.473C240.681 200.741 240.022 198.803 238.97 197.112Z" fill="black"/>
<path opacity="0.028571" d="M237.608 195.834L237.711 195.896L145.711 51.442C141.319 44.5348 134.803 40.7822 130.391 42.5967L38.3085 80.7823L38.4115 80.8441C37.36 81.3183 36.7002 82.4936 36.7002 84.2256V226.968C36.7002 230.226 39.0095 234.205 41.8342 235.834L234.164 346.865C237.01 348.514 239.298 347.195 239.298 343.937V201.195C239.319 199.442 238.659 197.504 237.608 195.834Z" fill="black"/>
<path opacity="0.035714" d="M236.269 194.535L236.372 194.597L144.372 50.143C139.98 43.2357 133.464 39.4831 129.052 41.2976L36.9696 79.4832L37.0727 79.5451C36.0211 80.0193 35.3613 81.1945 35.3613 82.9265V225.669C35.3613 228.927 37.6706 232.906 40.4953 234.535L232.825 345.566C235.671 347.215 237.959 345.896 237.959 342.638V199.896C237.98 198.143 237.3 196.226 236.269 194.535Z" fill="black"/>
<path opacity="0.042857" d="M234.906 193.257L235.009 193.318L143.009 48.8646C138.617 41.9574 132.102 38.2048 127.689 40.0193L35.6068 78.2049L35.7099 78.2667C34.6583 78.7409 33.9985 79.9162 33.9985 81.6482V224.391C33.9985 227.648 36.3078 231.628 39.1326 233.257L231.463 344.288C234.308 345.937 236.597 344.617 236.597 341.36V198.617C236.617 196.865 235.958 194.927 234.906 193.257Z" fill="black"/>
<path opacity="0.05" d="M233.546 191.957L233.649 192.019L141.649 47.5656C137.257 40.6583 130.742 36.9058 126.329 38.7202L34.2467 76.9058L34.3498 76.9677C33.2982 77.4419 32.6384 78.6171 32.6384 80.3491V223.092C32.6384 226.349 34.9477 230.329 37.7724 231.957L230.103 342.989C232.948 344.638 235.237 343.318 235.237 340.061V197.318C235.257 195.566 234.597 193.648 233.546 191.957Z" fill="black"/>
<path opacity="0.057143" d="M232.207 190.679L232.31 190.741L140.31 46.2872C135.918 39.38 129.402 35.6274 124.99 37.4419L32.9076 75.6275L33.0107 75.6893C31.9591 76.1636 31.2993 77.3388 31.2993 79.0708V221.813C31.2993 225.071 33.6086 229.05 36.4333 230.679L228.763 341.71C231.609 343.36 233.897 342.04 233.897 338.782V196.04C233.897 194.287 233.238 192.349 232.207 190.679Z" fill="black"/>
<path opacity="0.064286" d="M230.844 189.38L230.947 189.442L138.947 44.9884C134.555 38.0812 128.04 34.3286 123.628 36.143L31.545 74.3286L31.6481 74.3905C30.5966 74.8647 29.9368 76.04 29.9368 77.7719V220.514C29.9368 223.772 32.2461 227.751 35.0708 229.38L227.401 340.411C230.246 342.061 232.535 340.741 232.535 337.484V194.741C232.556 192.989 231.875 191.071 230.844 189.38Z" fill="black"/>
<path opacity="0.071429" d="M229.486 188.102L229.589 188.164L137.589 43.7101C133.197 36.8029 126.682 33.0503 122.27 34.8647L30.1871 73.0503L30.2902 73.1122C29.2386 73.5864 28.5789 74.7617 28.5789 76.4936V219.236C28.5789 222.494 30.8881 226.473 33.7129 228.102L226.043 339.133C228.888 340.783 231.177 339.463 231.177 336.205V193.463C231.198 191.71 230.538 189.772 229.486 188.102Z" fill="black"/>
<path opacity="0.078571" d="M228.124 186.803L228.227 186.865L136.227 42.4108C131.836 35.5036 125.32 31.751 120.908 33.5654L28.8458 71.751L28.9489 71.8129C27.8973 72.2871 27.2375 73.4623 27.2375 75.1943V217.937C27.2375 221.194 29.5468 225.174 32.3716 226.803L224.702 337.834C227.547 339.483 229.836 338.164 229.836 334.906V192.163C229.836 190.411 229.176 188.493 228.124 186.803Z" fill="black"/>
<path opacity="0.085714" d="M226.782 185.524L226.885 185.586L134.885 41.1325C130.494 34.2252 123.978 30.4726 119.566 32.2871L27.4833 70.4727L27.5864 70.5345C26.5348 71.0088 25.875 72.184 25.875 73.916V216.658C25.875 219.916 28.1843 223.896 31.009 225.524L223.339 336.555C226.184 338.205 228.473 336.885 228.473 333.628V190.885C228.494 189.133 227.813 187.194 226.782 185.524Z" fill="black"/>
<path opacity="0.092857" d="M225.425 184.226L225.528 184.287L133.528 39.8336C129.136 32.9264 122.62 29.1738 118.208 30.9883L26.1253 69.1739L26.2284 69.2357C25.1769 69.71 24.5171 70.8852 24.5171 72.6172V215.36C24.5171 218.617 26.8264 222.597 29.6511 224.226L221.981 335.257C224.827 336.906 227.115 335.586 227.115 332.329V189.586C227.136 187.834 226.476 185.916 225.425 184.226Z" fill="black"/>
<path opacity="0.1" d="M224.062 182.947L224.165 183.009L132.165 38.5346C127.773 31.6273 121.258 27.8747 116.845 29.6892L24.7628 67.8748L24.8659 67.9366C23.8143 68.4109 23.1545 69.5861 23.1545 71.3181V214.06C23.1545 217.318 25.4638 221.298 28.2885 222.926L220.619 333.957C223.464 335.607 225.753 334.287 225.753 331.03V188.287C225.773 186.555 225.113 184.617 224.062 182.947Z" fill="black"/>
<path opacity="0.1071" d="M222.723 181.648L222.826 181.71L130.826 37.2562C126.434 30.349 119.919 26.5964 115.506 28.4109L23.4237 66.5965L23.5268 66.6583C22.4752 67.1325 21.8154 68.3078 21.8154 70.0398V212.782C21.8154 216.04 24.1247 220.019 26.9494 221.648L219.28 332.679C222.125 334.329 224.414 333.009 224.414 329.751V187.009C224.434 185.256 223.754 183.339 222.723 181.648Z" fill="black"/>
<path opacity="0.1143" d="M221.36 180.37L221.463 180.432L129.463 35.9779C125.072 29.0707 118.556 25.3181 114.144 27.1325L22.0611 65.2975L22.1642 65.3594C21.1127 65.8336 20.4529 67.0089 20.4529 68.7408V211.483C20.4529 214.741 22.7622 218.72 25.5869 220.349L217.917 331.38C220.762 333.03 223.051 331.71 223.051 328.452V185.71C223.072 183.978 222.412 182.04 221.36 180.37Z" fill="black"/>
<path opacity="0.1214" d="M220 179.071L220.103 179.133L128.103 34.6788C123.711 27.7716 117.196 24.019 112.784 25.8335L20.701 64.0191L20.8041 64.0809C19.7525 64.5552 19.0928 65.7304 19.0928 67.4624V210.205C19.0928 213.463 21.402 217.442 24.2268 219.071L216.557 330.102C219.402 331.751 221.691 330.432 221.691 327.174V184.432C221.711 182.679 221.052 180.761 220 179.071Z" fill="black"/>
<path opacity="0.1286" d="M218.661 177.792L218.764 177.854L126.764 33.4005C122.372 26.4933 115.857 22.7407 111.444 24.5551L19.3619 62.7408L19.465 62.8026C18.4134 63.2768 17.7537 64.4521 17.7537 66.1841V208.926C17.7537 212.184 20.0629 216.164 22.8877 217.792L215.218 328.823C218.063 330.473 220.352 329.153 220.352 325.896V183.153C220.372 181.401 219.692 179.463 218.661 177.792Z" fill="black"/>
<path opacity="0.1357" d="M217.298 176.493L217.402 176.555L125.402 32.1015C121.01 25.1942 114.494 21.4416 110.082 23.2561L17.9994 61.4417L18.1025 61.5035C17.0509 61.9778 16.3911 63.153 16.3911 64.885V207.627C16.3911 210.885 18.7004 214.865 21.5251 216.493L213.855 327.524C216.701 329.174 218.989 327.854 218.989 324.597V181.854C219.01 180.102 218.35 178.184 217.298 176.493Z" fill="black"/>
<path opacity="0.1429" d="M215.938 175.215L216.042 175.277L124.041 30.8231C119.65 23.9159 113.134 20.1633 108.722 21.9778L16.6393 60.1634L16.7424 60.2252C15.6908 60.6994 15.031 61.8747 15.031 63.6067V206.349C15.031 209.607 17.3403 213.586 20.1651 215.215L212.495 326.246C215.341 327.896 217.629 326.576 217.629 323.318V180.576C217.65 178.823 216.99 176.885 215.938 175.215Z" fill="black"/>
<path opacity="0.15" d="M214.597 173.916L214.7 173.978L122.7 29.5243C118.308 22.6171 111.793 18.8645 107.38 20.6789L15.2977 58.8645L15.4008 58.9264C14.3493 59.4006 13.6895 60.5759 13.6895 62.3078V205.05C13.6895 208.308 15.9988 212.287 18.8235 213.916L211.154 324.947C213.999 326.597 216.288 325.277 216.288 322.019V179.277C216.308 177.524 215.628 175.607 214.597 173.916Z" fill="black"/>
<path d="M217.217 170.534L217.34 170.596L117.876 14.4102C113.134 6.94624 106.082 2.88437 101.32 4.84314L1.75245 46.1215L1.87618 46.1834C0.742158 46.6988 0.0205078 47.9566 0.0205078 49.8329V204.163C0.0205078 207.689 2.51536 211.977 5.58752 213.751L213.505 333.813C216.577 335.586 219.072 334.163 219.072 330.637V176.307C219.052 174.431 218.33 172.348 217.217 170.534Z" fill="#505F98"/>
<path d="M216.89 333.689V179.359C216.89 177.483 216.168 175.38 215.034 173.565L215.158 173.627L115.694 17.4416C110.931 9.97765 103.9 5.9158 99.1372 7.87457L0.106201 48.9261C0.312387 47.5447 0.930944 46.5963 1.85878 46.1633L1.73505 46.1014L101.302 4.82302C106.065 2.84364 113.096 6.92611 117.859 14.39L217.323 170.576L217.199 170.514C218.333 172.328 219.055 174.431 219.055 176.308V330.638C219.055 332.72 218.168 334.06 216.807 334.432C216.849 334.205 216.89 333.978 216.89 333.689Z" fill="url(#paint24_radial_437_2931)"/>
<g opacity="0.3">
<path opacity="0.090909" d="M48.4568 18.617C38.2506 12.7201 29.9619 17.4418 29.9619 29.1531V175.463C29.9619 187.174 38.2506 201.463 48.4568 207.359L176.581 279.999C186.787 285.896 198.807 280.576 198.807 268.865V122.576C198.807 110.865 186.807 97.1532 176.581 91.2563L48.4568 18.617Z" fill="#A7ADDF"/>
<path opacity="0.1818" d="M48.231 19.2767C38.0249 13.3798 29.7568 18.1015 29.7568 29.8128V175.318C29.7568 187.029 38.0249 201.298 48.231 207.174L176.046 279.648C186.252 285.545 197.881 280.287 197.881 268.576V123.091C197.881 111.38 186.252 97.6479 176.046 91.751L48.231 19.2767Z" fill="#A0A5D9"/>
<path opacity="0.2727" d="M48.0029 19.9569C37.8174 14.0806 29.5493 18.7816 29.5493 30.4724V175.194C29.5493 186.885 37.8174 201.132 48.0029 207.009L175.508 279.297C185.694 285.174 196.931 279.998 196.931 268.308V123.586C196.931 111.895 185.694 98.1219 175.508 92.2456L48.0029 19.9569Z" fill="#989CD3"/>
<path opacity="0.3636" d="M47.7772 20.6171C37.5916 14.7408 29.3442 19.4418 29.3442 31.1119V175.05C29.3442 186.72 37.5916 200.947 47.7772 206.823L174.994 278.947C185.179 284.823 196.025 279.71 196.025 268.019V124.081C196.025 112.411 185.159 98.5965 174.994 92.7202L47.7772 20.6171Z" fill="#9094CD"/>
<path opacity="0.4545" d="M47.5498 21.2765C37.3848 15.4002 29.158 20.1012 29.158 31.7714V174.926C29.158 186.596 37.4054 200.802 47.5498 206.658L174.457 278.596C184.622 284.473 195.096 279.421 195.096 267.751V124.596C195.096 112.926 184.622 99.0704 174.457 93.2147L47.5498 21.2765Z" fill="#898BC7"/>
<path opacity="0.5455" d="M47.3219 21.9367C37.1775 16.081 28.9507 20.7614 28.9507 32.4109V174.803C28.9507 186.452 37.1775 200.638 47.3219 206.494L173.92 278.267C184.064 284.122 194.167 279.133 194.167 267.504V125.112C194.167 113.463 184.085 99.5656 173.92 93.7099L47.3219 21.9367Z" fill="#8183C1"/>
<path opacity="0.6364" d="M47.0961 22.5963C36.9518 16.7407 28.7456 21.4211 28.7456 33.0706V174.679C28.7456 186.308 36.9724 200.493 47.0961 206.328L173.406 277.916C183.55 283.772 193.241 278.844 193.241 267.215V125.607C193.241 113.978 183.529 100.04 173.406 94.184L47.0961 22.5963Z" fill="#7A7ABB"/>
<path opacity="0.7273" d="M46.8892 23.2562C36.7655 17.4212 28.5593 22.081 28.5593 33.7099V174.535C28.5593 186.143 36.7655 200.308 46.8892 206.164L172.889 277.586C183.013 283.421 192.333 278.576 192.333 266.968V126.143C192.333 114.535 183.013 100.555 172.889 94.6996L46.8892 23.2562Z" fill="#7272B5"/>
<path opacity="0.8182" d="M46.6636 23.9366C36.5605 18.1016 28.3542 22.782 28.3542 34.3696V174.411C28.3542 186.019 36.5605 200.143 46.6636 205.999L172.354 277.236C182.457 283.071 191.406 278.287 191.406 266.679V126.638C191.406 115.029 182.457 101.009 172.354 95.1738L46.6636 23.9366Z" fill="#6A69AF"/>
<path opacity="0.9091" d="M46.4354 24.596C36.3323 18.761 28.1467 23.4414 28.1467 35.029V174.287C28.1467 185.875 36.3323 199.998 46.4354 205.833L171.817 276.906C181.92 282.741 190.477 278.019 190.477 266.431V127.173C190.477 115.586 181.92 101.524 171.817 95.6889L46.4354 24.596Z" fill="#6361A9"/>
<path opacity="0.3" d="M46.2097 25.2562C36.1272 19.4418 27.9417 24.1016 27.9417 35.6686V174.143C27.9417 185.71 36.1272 199.813 46.2097 205.648L171.303 276.535C181.385 282.349 189.571 277.689 189.571 266.122V127.648C189.571 116.081 181.385 101.978 171.303 96.1429L46.2097 25.2562Z" fill="#5B58A3"/>
</g>
<path d="M189.526 126.473C189.526 114.865 181.32 100.7 171.196 94.8647L45.691 23.7306C35.5673 17.8956 27.3611 22.5554 27.3611 34.1842V58.9059L189.526 151.133V126.473Z" fill="#929ECC"/>
<path d="M45.691 214.638L171.196 285.772C181.32 291.607 189.526 286.947 189.526 275.318V142.947L27.3611 50.7202V183.03C27.3611 194.658 35.5673 208.803 45.691 214.638Z" fill="white"/>
<path d="M171.196 94.8647L45.691 23.7306C35.5673 17.8956 27.3611 22.5554 27.3611 34.1842V35.9574C27.3611 24.3492 35.5673 19.6688 45.691 25.5038L171.196 96.6379C181.32 102.473 189.526 116.638 189.526 128.246V126.473C189.526 114.865 181.32 100.7 171.196 94.8647Z" fill="#37447E"/>
<path d="M79.1964 184.7L40.3716 162.287V75.8955L79.1964 98.3285V184.7Z" fill="#CED3F4"/>
<path d="M79.1964 116.329L40.3716 93.9161V75.8955L79.1964 98.3285V116.329Z" fill="#929ECC"/>
<path d="M126.556 212.04L87.7317 189.627V103.256L126.556 125.668V212.04Z" fill="#CED3F4"/>
<path d="M173.917 239.38L135.092 216.967V130.596L173.917 153.009V239.38Z" fill="#CED3F4"/>
<path d="M126.556 143.669L87.7317 121.256V103.256L126.556 125.668V143.669Z" fill="#929ECC"/>
<path d="M173.917 171.029L135.092 148.596V130.596L173.917 153.009V171.029Z" fill="#929ECC"/>
<path opacity="0.2" d="M117.918 214.102C113.072 216.102 105.897 211.957 101.052 204.37L0 52.0811V197.793C0 201.318 2.49485 205.607 5.56702 207.38L213.505 327.422C216.577 329.195 219.072 327.772 219.072 324.246V178.555L117.918 214.102Z" fill="black"/>
<path d="M117.918 220.493C113.072 222.493 105.897 218.349 101.052 210.761L0 52.1016V204.205C0 207.731 2.49485 212.019 5.56702 213.792L213.505 333.813C216.577 335.586 219.072 334.164 219.072 330.638V178.555L117.918 220.493Z" fill="url(#paint25_linear_437_2931)"/>
<path d="M115.753 224.391C110.907 226.391 103.732 222.246 98.8867 214.659L0 52.0811L101.052 210.741C105.897 218.349 113.072 222.494 117.918 220.473L219.052 178.535L115.753 224.391Z" fill="url(#paint26_radial_437_2931)"/>
<path opacity="0.2" d="M5.03009 213.607L4.927 213.545L100.453 169.153C105.01 167.256 111.793 171.174 116.35 178.328L211.958 333.071L211.855 333.009L5.03009 213.607Z" fill="black"/>
<path d="M5.03009 213.607L4.927 213.545L100.453 173.854C105.01 171.957 111.793 175.875 116.35 183.03L211.958 333.071L211.855 333.009L5.03009 213.607Z" fill="url(#paint27_linear_437_2931)"/>
<path d="M115.03 185.318C110.473 178.164 103.689 174.246 99.1327 176.143L6.65834 214.555L5.00885 213.607L4.90576 213.545L100.432 173.854C104.988 171.957 111.772 175.875 116.329 183.03L211.937 333.071L211.834 333.009L207.586 330.556L115.03 185.318Z" fill="url(#paint28_radial_437_2931)"/>
<path opacity="0.95" d="M243.711 236.494C242.927 235.834 242.226 234.988 241.67 234.061C241.34 233.504 241.34 232.885 241.67 232.7C242.103 232.452 242.474 232.061 242.701 231.545C243.051 231.648 243.505 231.504 243.505 231.03C243.505 230.535 243.278 229.978 242.989 229.71C242.907 227.566 242.164 225.38 239.711 223.957C237.257 222.535 236.515 223.896 236.432 225.937C236.144 225.875 235.917 226.164 235.917 226.658C235.917 227.153 236.35 227.792 236.721 228.102C236.969 228.906 237.34 229.731 237.752 230.473C238.082 231.05 238.082 231.669 237.752 231.834C237.195 232.122 236.494 232.164 235.711 231.916C234.68 231.607 233.917 232.225 233.917 233.504V235.71C233.917 236.143 234.226 236.658 234.597 236.865L244.824 242.762C245.195 242.968 245.505 242.803 245.505 242.37V240.164C245.525 238.885 244.742 237.38 243.711 236.494Z" fill="white"/>
<path opacity="0.95" d="M235.01 273.483C233.897 271.689 233.257 269.73 233.072 267.586C233.051 267.05 233.031 267.215 233.031 266.534C233.031 265.833 233.051 265.256 233.072 264.803C233.195 263.607 233.525 262.658 234.041 261.978C234.556 261.297 235.299 260.947 236.247 260.906C237.195 260.885 238.309 261.236 239.608 261.998C243.897 264.473 246.206 268.555 246.412 272.493C246.433 273.071 246.453 273.256 246.453 273.607C246.453 274.122 246.433 274.555 246.412 274.906C246.371 275.875 246.103 276.493 245.608 276.761C245.113 277.029 244.515 276.947 243.793 276.535C243.257 276.225 242.804 275.854 242.453 275.4C242.103 274.947 241.835 274.555 241.67 274.163C241.484 274.431 241.195 274.596 240.866 274.638C240.515 274.699 240.02 274.535 239.34 274.143C238.433 273.627 237.711 272.823 237.175 271.772C236.639 270.72 236.391 269.524 236.391 268.184C236.391 266.844 236.659 265.957 237.175 265.483C237.69 265.029 238.412 265.05 239.299 265.565C239.732 265.813 240.103 266.122 240.391 266.452C240.68 266.803 240.927 267.174 241.134 267.607V267.297C241.134 267.153 241.175 267.05 241.257 267.009C241.34 266.967 241.443 266.988 241.567 267.05L242.288 267.462C242.412 267.545 242.536 267.648 242.598 267.772C242.659 267.895 242.721 268.06 242.721 268.205V272.555C242.721 273.071 242.824 273.524 243.01 273.895C243.196 274.266 243.464 274.555 243.793 274.741C244.165 274.968 244.433 274.947 244.598 274.72C244.763 274.493 244.824 274.184 244.824 273.772C244.845 273.359 244.866 272.947 244.866 272.473C244.866 272.266 244.845 272.163 244.824 271.648C244.721 269.916 244.288 268.638 243.484 267.38C242.68 266.122 241.402 264.782 239.608 263.751C238.123 262.906 236.969 262.658 236.165 263.05C235.34 263.442 234.866 264.349 234.721 265.813C234.68 266.143 234.659 266.679 234.659 267.442C234.659 268.184 234.68 267.978 234.721 268.411C234.845 270.04 235.34 271.524 236.185 272.844C237.031 274.163 238.226 275.256 239.773 276.163C240.536 276.596 241.154 276.906 241.628 277.05C242.123 277.215 242.474 277.277 242.742 277.277C242.989 277.256 243.257 277.215 243.567 277.132C243.67 277.091 243.752 277.071 243.814 277.071C243.876 277.05 243.958 277.091 244.061 277.153L245.092 277.751C245.216 277.813 245.319 277.937 245.402 278.081C245.484 278.225 245.525 278.37 245.525 278.514C245.525 278.576 245.484 278.658 245.422 278.761C244.144 279.669 242.247 279.401 239.773 277.957C237.69 276.761 236.123 275.277 235.01 273.483ZM240.721 272.576C240.969 272.308 241.092 271.751 241.092 270.906C241.092 270.06 240.969 269.359 240.721 268.803C240.474 268.225 240.061 267.792 239.505 267.462C238.453 266.864 237.938 267.4 237.938 269.091C237.938 269.854 238.061 270.535 238.329 271.153C238.598 271.751 238.989 272.205 239.505 272.514C240.082 272.844 240.474 272.864 240.721 272.576Z" fill="white"/>
<path d="M413.998 49.6274L317.008 95.2151L326.225 124.844L413.998 49.6274Z" fill="url(#paint29_linear_437_2931)"/>
<path d="M413.998 49.6274L317.008 95.2151L326.225 124.844L413.998 49.6274Z" fill="#E9EBEC"/>
<path d="M413.997 49.6274L317.008 95.2151L300.863 96.3079L291.317 87.4625L413.997 49.6274Z" fill="#929ECC"/>
<path d="M413.999 49.6274L335.421 105.916L326.226 124.844L413.999 49.6274Z" fill="url(#paint30_linear_437_2931)"/>
<path d="M413.999 49.6274L335.421 105.916L326.226 124.844L413.999 49.6274Z" fill="url(#paint31_linear_437_2931)"/>
<path d="M413.997 49.6274L335.419 105.916L347.667 119.401L362.719 124.885L413.997 49.6274Z" fill="#929ECC"/>
<path d="M362.719 124.886L347.668 119.401L335.42 105.917L326.224 124.844L317.008 95.2155L300.863 96.3083L291.317 87.4629L301.214 96.0402L317.296 95.0918L326.307 123.607L335.42 105.917L347.729 118.844L362.719 124.886Z" fill="#37447E"/>
<defs>
<linearGradient id="paint0_linear_437_2931" x1="201.512" y1="329.928" x2="177.03" y2="377.668" gradientUnits="userSpaceOnUse">
<stop offset="0.1818" stop-color="#4D5A96"/>
<stop offset="0.2483" stop-color="#6A75A7"/>
<stop offset="0.3644" stop-color="#979FC2"/>
<stop offset="0.4813" stop-color="#BDC2D8"/>
<stop offset="0.5972" stop-color="#DADCE9"/>
<stop offset="0.712" stop-color="#EEF0F5"/>
<stop offset="0.825" stop-color="#FBFBFD"/>
<stop offset="0.9343" stop-color="white"/>
</linearGradient>
<linearGradient id="paint1_linear_437_2931" x1="-194.824" y1="140.384" x2="493.12" y2="291.357" gradientUnits="userSpaceOnUse">
<stop stop-color="#AFB6E5"/>
<stop offset="0.1449" stop-color="#B6BCE8"/>
<stop offset="0.3485" stop-color="#C8CDF1"/>
<stop offset="0.5808" stop-color="#E5E9FF"/>
<stop offset="0.8551" stop-color="#F5F6FF"/>
<stop offset="1" stop-color="white"/>
</linearGradient>
<linearGradient id="paint2_linear_437_2931" x1="122.353" y1="-38.4368" x2="357.663" y2="433.001" gradientUnits="userSpaceOnUse">
<stop stop-color="#B3BAE7"/>
<stop offset="0.1919" stop-color="#B7BDE9"/>
<stop offset="0.2828" stop-color="#BAC0E9"/>
<stop offset="0.4091" stop-color="#AFB6E5"/>
<stop offset="0.9091" stop-color="#AFB6E5"/>
<stop offset="1" stop-color="#B3BAE7"/>
</linearGradient>
<linearGradient id="paint3_linear_437_2931" x1="122.256" y1="-38.3542" x2="357.553" y2="433.056" gradientUnits="userSpaceOnUse">
<stop stop-color="#B4BBE8"/>
<stop offset="0.1919" stop-color="#B9BEEA"/>
<stop offset="0.2828" stop-color="#BCC2EA"/>
<stop offset="0.4091" stop-color="#B2B8E6"/>
<stop offset="0.4343" stop-color="#B2B8E6"/>
<stop offset="0.5354" stop-color="#B3B9E6"/>
<stop offset="0.7222" stop-color="#AFB6E5"/>
<stop offset="0.9091" stop-color="#AFB6E5"/>
<stop offset="1" stop-color="#B4BBE8"/>
</linearGradient>
<linearGradient id="paint4_linear_437_2931" x1="122.159" y1="-38.2718" x2="357.441" y2="433.111" gradientUnits="userSpaceOnUse">
<stop stop-color="#B5BCE8"/>
<stop offset="0.1919" stop-color="#BAC0EA"/>
<stop offset="0.2828" stop-color="#BDC3EB"/>
<stop offset="0.4091" stop-color="#B4BBE7"/>
<stop offset="0.4343" stop-color="#B4BBE7"/>
<stop offset="0.5354" stop-color="#B7BDE7"/>
<stop offset="0.7222" stop-color="#AFB6E5"/>
<stop offset="0.9091" stop-color="#AFB6E5"/>
<stop offset="1" stop-color="#B5BCE8"/>
</linearGradient>
<linearGradient id="paint5_linear_437_2931" x1="122.061" y1="-38.1903" x2="357.33" y2="433.166" gradientUnits="userSpaceOnUse">
<stop stop-color="#B7BDE9"/>
<stop offset="0.1919" stop-color="#BCC1EB"/>
<stop offset="0.2828" stop-color="#BFC5EC"/>
<stop offset="0.4091" stop-color="#B7BDE9"/>
<stop offset="0.4343" stop-color="#B7BDE9"/>
<stop offset="0.5354" stop-color="#BAC0E9"/>
<stop offset="0.7222" stop-color="#AFB6E5"/>
<stop offset="0.9091" stop-color="#AFB6E5"/>
<stop offset="1" stop-color="#B7BDE9"/>
</linearGradient>
<linearGradient id="paint6_linear_437_2931" x1="121.866" y1="-38.0263" x2="357.108" y2="433.275" gradientUnits="userSpaceOnUse">
<stop stop-color="#B9C0EA"/>
<stop offset="0.1919" stop-color="#BFC4ED"/>
<stop offset="0.2828" stop-color="#C2C8ED"/>
<stop offset="0.4091" stop-color="#BCC2EB"/>
<stop offset="0.4343" stop-color="#BCC2EB"/>
<stop offset="0.5354" stop-color="#C2C7EB"/>
<stop offset="0.7222" stop-color="#AFB6E5"/>
<stop offset="0.9091" stop-color="#AFB6E5"/>
<stop offset="1" stop-color="#B9C0EA"/>
</linearGradient>
<linearGradient id="paint7_linear_437_2931" x1="121.768" y1="-37.9445" x2="356.997" y2="433.33" gradientUnits="userSpaceOnUse">
<stop stop-color="#BAC1EA"/>
<stop offset="0.1919" stop-color="#C0C6ED"/>
<stop offset="0.2828" stop-color="#C4C9EE"/>
<stop offset="0.4091" stop-color="#BEC4EC"/>
<stop offset="0.4343" stop-color="#BEC5EC"/>
<stop offset="0.5354" stop-color="#C6CBEC"/>
<stop offset="0.698" stop-color="#B2B9E6"/>
<stop offset="0.7222" stop-color="#AFB6E5"/>
<stop offset="0.9091" stop-color="#AFB6E5"/>
<stop offset="0.999" stop-color="#BAC1EA"/>
<stop offset="1" stop-color="#BAC1EA"/>
</linearGradient>
<linearGradient id="paint8_linear_437_2931" x1="121.671" y1="-37.8621" x2="356.886" y2="433.385" gradientUnits="userSpaceOnUse">
<stop stop-color="#BCC2EB"/>
<stop offset="0.1919" stop-color="#C2C7EE"/>
<stop offset="0.2828" stop-color="#C6CBEF"/>
<stop offset="0.4091" stop-color="#C1C7ED"/>
<stop offset="0.4343" stop-color="#C1C7EE"/>
<stop offset="0.5354" stop-color="#CACEEE"/>
<stop offset="0.6768" stop-color="#B6BDE7"/>
<stop offset="0.7222" stop-color="#AFB6E5"/>
<stop offset="0.9091" stop-color="#AFB6E5"/>
<stop offset="0.9881" stop-color="#BAC0EA"/>
<stop offset="1" stop-color="#BCC2EB"/>
</linearGradient>
<linearGradient id="paint9_linear_437_2931" x1="121.573" y1="-37.7803" x2="356.775" y2="433.44" gradientUnits="userSpaceOnUse">
<stop stop-color="#BDC3EC"/>
<stop offset="0.1919" stop-color="#C4C9EF"/>
<stop offset="0.2828" stop-color="#C7CDF0"/>
<stop offset="0.4091" stop-color="#C3C9EF"/>
<stop offset="0.4343" stop-color="#C4C9EF"/>
<stop offset="0.5354" stop-color="#CDD2EF"/>
<stop offset="0.6644" stop-color="#B9C0E8"/>
<stop offset="0.7222" stop-color="#AFB6E5"/>
<stop offset="0.9091" stop-color="#AFB6E5"/>
<stop offset="0.9836" stop-color="#BAC0EA"/>
<stop offset="1" stop-color="#BDC3EC"/>
</linearGradient>
<linearGradient id="paint10_linear_437_2931" x1="121.378" y1="-37.6159" x2="356.553" y2="433.55" gradientUnits="userSpaceOnUse">
<stop stop-color="#BFC5ED"/>
<stop offset="0.1919" stop-color="#C7CCF0"/>
<stop offset="0.2828" stop-color="#CBD0F2"/>
<stop offset="0.4091" stop-color="#C8CEF1"/>
<stop offset="0.4343" stop-color="#C9CEF1"/>
<stop offset="0.5228" stop-color="#D3D7F1"/>
<stop offset="0.5354" stop-color="#D5D9F1"/>
<stop offset="0.6403" stop-color="#C1C7EB"/>
<stop offset="0.7222" stop-color="#AFB6E5"/>
<stop offset="0.9091" stop-color="#AFB6E5"/>
<stop offset="0.9763" stop-color="#BAC0EA"/>
<stop offset="1" stop-color="#BFC5ED"/>
</linearGradient>
<linearGradient id="paint11_linear_437_2931" x1="121.28" y1="-37.534" x2="356.441" y2="433.605" gradientUnits="userSpaceOnUse">
<stop stop-color="#C1C7ED"/>
<stop offset="0.1919" stop-color="#C8CDF1"/>
<stop offset="0.2828" stop-color="#CCD1F2"/>
<stop offset="0.4091" stop-color="#CBD0F2"/>
<stop offset="0.4343" stop-color="#CBD1F3"/>
<stop offset="0.513" stop-color="#D5D9F3"/>
<stop offset="0.5354" stop-color="#D9DCF3"/>
<stop offset="0.6316" stop-color="#C5CAEC"/>
<stop offset="0.7222" stop-color="#AFB6E5"/>
<stop offset="0.9091" stop-color="#AFB6E5"/>
<stop offset="0.9704" stop-color="#BAC0EA"/>
<stop offset="1" stop-color="#C1C7ED"/>
</linearGradient>
<linearGradient id="paint12_linear_437_2931" x1="121.183" y1="-37.4518" x2="356.33" y2="433.66" gradientUnits="userSpaceOnUse">
<stop stop-color="#C2C8EE"/>
<stop offset="0.1919" stop-color="#CACFF2"/>
<stop offset="0.2828" stop-color="#CED3F3"/>
<stop offset="0.4091" stop-color="#CDD3F3"/>
<stop offset="0.4343" stop-color="#CED3F4"/>
<stop offset="0.509" stop-color="#D8DCF4"/>
<stop offset="0.5354" stop-color="#DDE0F4"/>
<stop offset="0.6245" stop-color="#C9CEEE"/>
<stop offset="0.7222" stop-color="#AFB6E5"/>
<stop offset="0.9091" stop-color="#AFB6E5"/>
<stop offset="0.9679" stop-color="#BAC0EA"/>
<stop offset="1" stop-color="#C2C8EE"/>
</linearGradient>
<linearGradient id="paint13_linear_437_2931" x1="121.085" y1="-37.3702" x2="356.219" y2="433.714" gradientUnits="userSpaceOnUse">
<stop stop-color="#C3C9EE"/>
<stop offset="0.1919" stop-color="#CBD0F2"/>
<stop offset="0.2828" stop-color="#D0D4F4"/>
<stop offset="0.4091" stop-color="#D0D5F4"/>
<stop offset="0.4343" stop-color="#D0D6F5"/>
<stop offset="0.5022" stop-color="#DADEF5"/>
<stop offset="0.5354" stop-color="#E1E3F5"/>
<stop offset="0.6182" stop-color="#CDD1EF"/>
<stop offset="0.7222" stop-color="#AFB6E5"/>
<stop offset="0.9091" stop-color="#AFB6E5"/>
<stop offset="0.9656" stop-color="#BAC0EA"/>
<stop offset="1" stop-color="#C3C9EE"/>
</linearGradient>
<linearGradient id="paint14_linear_437_2931" x1="120.988" y1="-37.2881" x2="356.108" y2="433.77" gradientUnits="userSpaceOnUse">
<stop stop-color="#C4CAEF"/>
<stop offset="0.1919" stop-color="#CDD2F3"/>
<stop offset="0.2828" stop-color="#D1D6F5"/>
<stop offset="0.4091" stop-color="#D2D7F6"/>
<stop offset="0.4343" stop-color="#D3D8F6"/>
<stop offset="0.5022" stop-color="#DDE1F6"/>
<stop offset="0.5354" stop-color="#E4E7F6"/>
<stop offset="0.6142" stop-color="#D0D5F0"/>
<stop offset="0.7222" stop-color="#AFB6E5"/>
<stop offset="0.9091" stop-color="#AFB6E5"/>
<stop offset="0.9635" stop-color="#BAC0EA"/>
<stop offset="1" stop-color="#C4CAEF"/>
</linearGradient>
<linearGradient id="paint15_linear_437_2931" x1="120.89" y1="-37.2062" x2="355.997" y2="433.824" gradientUnits="userSpaceOnUse">
<stop stop-color="#C6CBF0"/>
<stop offset="0.1919" stop-color="#CFD3F4"/>
<stop offset="0.2828" stop-color="#D3D8F6"/>
<stop offset="0.4091" stop-color="#D5DAF7"/>
<stop offset="0.4343" stop-color="#D6DAF8"/>
<stop offset="0.4993" stop-color="#E0E3F8"/>
<stop offset="0.5354" stop-color="#E8EAF8"/>
<stop offset="0.6093" stop-color="#D4D8F1"/>
<stop offset="0.7222" stop-color="#AFB6E5"/>
<stop offset="0.9091" stop-color="#AFB6E5"/>
<stop offset="0.9597" stop-color="#BAC0EA"/>
<stop offset="1" stop-color="#C6CBF0"/>
</linearGradient>
<linearGradient id="paint16_linear_437_2931" x1="120.792" y1="-37.1243" x2="355.886" y2="433.879" gradientUnits="userSpaceOnUse">
<stop stop-color="#C7CCF0"/>
<stop offset="0.1919" stop-color="#D0D5F4"/>
<stop offset="0.2828" stop-color="#D5D9F7"/>
<stop offset="0.4091" stop-color="#D7DCF8"/>
<stop offset="0.4343" stop-color="#D8DDF9"/>
<stop offset="0.4942" stop-color="#E2E6F9"/>
<stop offset="0.5354" stop-color="#ECEEF9"/>
<stop offset="0.6051" stop-color="#D8DCF3"/>
<stop offset="0.7222" stop-color="#AFB6E5"/>
<stop offset="0.9091" stop-color="#AFB6E5"/>
<stop offset="0.9581" stop-color="#BAC0EA"/>
<stop offset="1" stop-color="#C7CCF0"/>
</linearGradient>
<linearGradient id="paint17_linear_437_2931" x1="120.695" y1="-37.0428" x2="355.775" y2="433.934" gradientUnits="userSpaceOnUse">
<stop stop-color="#C8CDF1"/>
<stop offset="0.1919" stop-color="#D2D6F5"/>
<stop offset="0.2828" stop-color="#D6DBF8"/>
<stop offset="0.4091" stop-color="#DADEF9"/>
<stop offset="0.4343" stop-color="#DBDFFA"/>
<stop offset="0.4921" stop-color="#E5E8FA"/>
<stop offset="0.5354" stop-color="#F0F1FA"/>
<stop offset="0.6013" stop-color="#DCDFF4"/>
<stop offset="0.7222" stop-color="#AFB6E5"/>
<stop offset="0.9091" stop-color="#AFB6E5"/>
<stop offset="0.9566" stop-color="#BAC0EA"/>
<stop offset="1" stop-color="#C8CDF1"/>
</linearGradient>
<linearGradient id="paint18_linear_437_2931" x1="120.597" y1="-36.9606" x2="355.663" y2="433.989" gradientUnits="userSpaceOnUse">
<stop stop-color="#C9CFF1"/>
<stop offset="0.1919" stop-color="#D3D8F6"/>
<stop offset="0.2828" stop-color="#D8DCF8"/>
<stop offset="0.4091" stop-color="#DCE1FA"/>
<stop offset="0.4343" stop-color="#DDE2FB"/>
<stop offset="0.4882" stop-color="#E7EAFB"/>
<stop offset="0.5354" stop-color="#F4F5FB"/>
<stop offset="0.598" stop-color="#E0E3F5"/>
<stop offset="0.7222" stop-color="#AFB6E5"/>
<stop offset="0.9091" stop-color="#AFB6E5"/>
<stop offset="0.9551" stop-color="#BAC0EA"/>
<stop offset="1" stop-color="#C9CFF1"/>
</linearGradient>
<linearGradient id="paint19_linear_437_2931" x1="120.499" y1="-36.8792" x2="355.553" y2="434.044" gradientUnits="userSpaceOnUse">
<stop stop-color="#CBD0F2"/>
<stop offset="0.1919" stop-color="#D5D9F7"/>
<stop offset="0.2828" stop-color="#DADEF9"/>
<stop offset="0.4091" stop-color="#DFE3FC"/>
<stop offset="0.4343" stop-color="#E0E4FD"/>
<stop offset="0.4882" stop-color="#EAEDFD"/>
<stop offset="0.5354" stop-color="#F7F8FD"/>
<stop offset="0.5957" stop-color="#E3E6F6"/>
<stop offset="0.7185" stop-color="#B1B8E6"/>
<stop offset="0.7222" stop-color="#AFB6E5"/>
<stop offset="0.9091" stop-color="#AFB6E5"/>
<stop offset="0.9526" stop-color="#BAC0EA"/>
<stop offset="1" stop-color="#CBD0F2"/>
</linearGradient>
<linearGradient id="paint20_linear_437_2931" x1="120.401" y1="-36.7977" x2="355.441" y2="434.099" gradientUnits="userSpaceOnUse">
<stop stop-color="#CCD1F2"/>
<stop offset="0.1919" stop-color="#D6DBF7"/>
<stop offset="0.2828" stop-color="#DBDFFA"/>
<stop offset="0.4091" stop-color="#E1E6FD"/>
<stop offset="0.4343" stop-color="#E2E7FE"/>
<stop offset="0.4849" stop-color="#ECEFFE"/>
<stop offset="0.5354" stop-color="#FBFCFE"/>
<stop offset="0.593" stop-color="#E7EAF8"/>
<stop offset="0.7101" stop-color="#B5BBE7"/>
<stop offset="0.7222" stop-color="#AFB6E5"/>
<stop offset="0.9091" stop-color="#AFB6E5"/>
<stop offset="0.9514" stop-color="#BAC0EA"/>
<stop offset="1" stop-color="#CCD1F2"/>
</linearGradient>
<radialGradient id="paint21_radial_437_2931" cx="0" cy="0" r="1" gradientUnits="userSpaceOnUse" gradientTransform="translate(274.784 327.359) scale(50.0143)">
<stop stop-color="#711F56"/>
<stop offset="0.1614" stop-color="#6C1E52"/>
<stop offset="0.3626" stop-color="#5C1946"/>
<stop offset="0.5849" stop-color="#431233"/>
<stop offset="0.8208" stop-color="#200918"/>
<stop offset="1"/>
</radialGradient>
<linearGradient id="paint22_linear_437_2931" x1="349.321" y1="83.9005" x2="278.25" y2="336.165" gradientUnits="userSpaceOnUse">
<stop offset="0.0151515" stop-color="#FFE585"/>
<stop offset="0.0963255" stop-color="#DBEE70"/>
<stop offset="0.1768" stop-color="#B4F759"/>
<stop offset="0.2233" stop-color="#90ED6F"/>
<stop offset="0.3261" stop-color="#35D5A5"/>
<stop offset="0.3838" stop-color="#00C7C5"/>
<stop offset="0.5185" stop-color="#2D9BE0"/>
<stop offset="0.6414" stop-color="#5277F7"/>
<stop offset="0.6751" stop-color="#5B76F7"/>
<stop offset="0.7298" stop-color="#7374F6"/>
<stop offset="0.7983" stop-color="#9A70F4"/>
<stop offset="0.8485" stop-color="#BB6DF3"/>
<stop offset="1" stop-color="#F36DD4"/>
</linearGradient>
<linearGradient id="paint23_linear_437_2931" x1="339.379" y1="81.0984" x2="268.307" y2="333.364" gradientUnits="userSpaceOnUse">
<stop offset="0.0151515" stop-color="#FFE585"/>
<stop offset="0.0963255" stop-color="#DBEE70"/>
<stop offset="0.1768" stop-color="#B4F759"/>
<stop offset="0.2233" stop-color="#90ED6F"/>
<stop offset="0.3261" stop-color="#35D5A5"/>
<stop offset="0.3838" stop-color="#00C7C5"/>
<stop offset="0.5185" stop-color="#2D9BE0"/>
<stop offset="0.6414" stop-color="#5277F7"/>
<stop offset="0.6751" stop-color="#5B76F7"/>
<stop offset="0.7298" stop-color="#7374F6"/>
<stop offset="0.7983" stop-color="#9A70F4"/>
<stop offset="0.8485" stop-color="#BB6DF3"/>
<stop offset="1" stop-color="#F36DD4"/>
</linearGradient>
<radialGradient id="paint24_radial_437_2931" cx="0" cy="0" r="1" gradientUnits="userSpaceOnUse" gradientTransform="translate(130.889 81.1416) rotate(180) scale(88.7095)">
<stop stop-color="white"/>
<stop offset="0.0656227" stop-color="#D8D8D8"/>
<stop offset="0.1615" stop-color="#A6A6A6"/>
<stop offset="0.2622" stop-color="#797979"/>
<stop offset="0.3658" stop-color="#545454"/>
<stop offset="0.4731" stop-color="#353535"/>
<stop offset="0.5852" stop-color="#1E1E1E"/>
<stop offset="0.7042" stop-color="#0D0D0D"/>
<stop offset="0.835" stop-color="#030303"/>
<stop offset="1"/>
</radialGradient>
<linearGradient id="paint25_linear_437_2931" x1="104.616" y1="337.276" x2="198.046" y2="190.417" gradientUnits="userSpaceOnUse">
<stop offset="0.0858586" stop-color="#E5E9FF"/>
<stop offset="0.3687" stop-color="#CED3F4"/>
<stop offset="0.5128" stop-color="#DDE2FB"/>
<stop offset="0.5707" stop-color="#E5E9FF"/>
<stop offset="0.7716" stop-color="#ECEFFF"/>
<stop offset="1" stop-color="#FBFBFF"/>
</linearGradient>
<radialGradient id="paint26_radial_437_2931" cx="0" cy="0" r="1" gradientUnits="userSpaceOnUse" gradientTransform="translate(144.754 114.011) rotate(180) scale(68.4257)">
<stop stop-color="white"/>
<stop offset="0.0656227" stop-color="#D8D8D8"/>
<stop offset="0.1615" stop-color="#A6A6A6"/>
<stop offset="0.2622" stop-color="#797979"/>
<stop offset="0.3658" stop-color="#545454"/>
<stop offset="0.4731" stop-color="#353535"/>
<stop offset="0.5852" stop-color="#1E1E1E"/>
<stop offset="0.7042" stop-color="#0D0D0D"/>
<stop offset="0.835" stop-color="#030303"/>
<stop offset="1"/>
</radialGradient>
<linearGradient id="paint27_linear_437_2931" x1="74.8471" y1="332.152" x2="153.764" y2="193.885" gradientUnits="userSpaceOnUse">
<stop offset="0.0858586" stop-color="#E5E9FF"/>
<stop offset="0.3687" stop-color="#CED3F4"/>
<stop offset="0.5128" stop-color="#DDE2FB"/>
<stop offset="0.5707" stop-color="#E5E9FF"/>
<stop offset="0.7716" stop-color="#ECEFFF"/>
<stop offset="1" stop-color="#FBFBFF"/>
</linearGradient>
<radialGradient id="paint28_radial_437_2931" cx="0" cy="0" r="1" gradientUnits="userSpaceOnUse" gradientTransform="translate(128.652 244.421) rotate(180) scale(61.2286)">
<stop stop-color="white"/>
<stop offset="0.0656227" stop-color="#D8D8D8"/>
<stop offset="0.1615" stop-color="#A6A6A6"/>
<stop offset="0.2622" stop-color="#797979"/>
<stop offset="0.3658" stop-color="#545454"/>
<stop offset="0.4731" stop-color="#353535"/>
<stop offset="0.5852" stop-color="#1E1E1E"/>
<stop offset="0.7042" stop-color="#0D0D0D"/>
<stop offset="0.835" stop-color="#030303"/>
<stop offset="1"/>
</radialGradient>
<linearGradient id="paint29_linear_437_2931" x1="309.918" y1="57.3462" x2="395.74" y2="99.9766" gradientUnits="userSpaceOnUse">
<stop offset="0.1414" stop-color="#00C7C5"/>
<stop offset="0.5152" stop-color="#31EAA0"/>
<stop offset="0.798" stop-color="#B4F759"/>
<stop offset="1" stop-color="#FFE585"/>
</linearGradient>
<linearGradient id="paint30_linear_437_2931" x1="328.794" y1="92.9384" x2="370.205" y2="87.231" gradientUnits="userSpaceOnUse">
<stop offset="0.1414" stop-color="#00C7C5"/>
<stop offset="0.5152" stop-color="#31EAA0"/>
<stop offset="0.798" stop-color="#B4F759"/>
<stop offset="1" stop-color="#FFE585"/>
</linearGradient>
<linearGradient id="paint31_linear_437_2931" x1="368.168" y1="128.012" x2="369.253" y2="105.227" gradientUnits="userSpaceOnUse">
<stop stop-color="white"/>
<stop offset="1" stop-color="#AFB6E5"/>
</linearGradient>
</defs>
</svg>
