<svg width="21" height="13" viewBox="0 0 21 13" fill="none" xmlns="http://www.w3.org/2000/svg">
<path d="M9.875 10.5234C9.46354 11.0599 8.89323 11.4661 8.16406 11.7422C7.4349 12.0182 6.60677 12.1562 5.67969 12.1562C4.72656 12.1562 3.88281 11.9401 3.14844 11.5078C2.41406 11.0755 1.84635 10.4583 1.44531 9.65625C1.04948 8.84896 0.84375 7.90885 0.828125 6.83594V5.94531C0.828125 4.22656 1.23958 2.88542 2.0625 1.92188C2.88542 0.953125 4.03385 0.46875 5.50781 0.46875C6.77344 0.46875 7.77865 0.78125 8.52344 1.40625C9.26823 2.03125 9.71615 2.93229 9.86719 4.10938H7.92969C7.71094 2.73958 6.91667 2.05469 5.54688 2.05469C4.66146 2.05469 3.98698 2.375 3.52344 3.01562C3.0651 3.65104 2.82812 4.58594 2.8125 5.82031V6.69531C2.8125 7.92448 3.07031 8.88021 3.58594 9.5625C4.10677 10.2396 4.82812 10.5781 5.75 10.5781C6.76042 10.5781 7.47917 10.349 7.90625 9.89062V7.66406H5.5625V6.16406H9.875V10.5234ZM12.0469 12V0.625H15.9453C17.2318 0.625 18.2109 0.882812 18.8828 1.39844C19.5547 1.91406 19.8906 2.68229 19.8906 3.70312C19.8906 4.22396 19.75 4.69271 19.4688 5.10938C19.1875 5.52604 18.776 5.84896 18.2344 6.07812C18.849 6.24479 19.3229 6.5599 19.6562 7.02344C19.9948 7.48177 20.1641 8.03385 20.1641 8.67969C20.1641 9.7474 19.8203 10.5677 19.1328 11.1406C18.4505 11.7135 17.4714 12 16.1953 12H12.0469ZM14.0234 6.86719V10.4219H16.2188C16.8385 10.4219 17.3229 10.2682 17.6719 9.96094C18.0208 9.65365 18.1953 9.22656 18.1953 8.67969C18.1953 7.4974 17.5911 6.89323 16.3828 6.86719H14.0234ZM14.0234 5.41406H15.9609C16.5755 5.41406 17.0547 5.27604 17.3984 5C17.7474 4.71875 17.9219 4.32292 17.9219 3.8125C17.9219 3.25 17.7604 2.84375 17.4375 2.59375C17.1198 2.34375 16.6224 2.21875 15.9453 2.21875H14.0234V5.41406Z" fill="#929ECC"/>
</svg>
