<svg width="12" height="13" viewBox="0 0 12 13" fill="none" xmlns="http://www.w3.org/2000/svg">
<path d="M0.898438 2.8125C0.898438 2.125 1.11979 1.5625 1.5625 1.125C2.00521 0.682292 2.58594 0.460938 3.30469 0.460938C4.03385 0.460938 4.61719 0.682292 5.05469 1.125C5.4974 1.5625 5.71875 2.13802 5.71875 2.85156V3.41406C5.71875 4.09635 5.4974 4.65625 5.05469 5.09375C4.61719 5.53125 4.03906 5.75 3.32031 5.75C2.61719 5.75 2.03646 5.53646 1.57812 5.10938C1.125 4.67708 0.898438 4.09635 0.898438 3.36719V2.8125ZM2.22656 3.41406C2.22656 3.77344 2.32552 4.0651 2.52344 4.28906C2.72656 4.50781 2.99219 4.61719 3.32031 4.61719C3.64323 4.61719 3.90365 4.50781 4.10156 4.28906C4.29948 4.0651 4.39844 3.76302 4.39844 3.38281V2.8125C4.39844 2.45312 4.29688 2.16146 4.09375 1.9375C3.89583 1.71354 3.63281 1.60156 3.30469 1.60156C2.97656 1.60156 2.71354 1.71615 2.51562 1.94531C2.32292 2.16927 2.22656 2.46615 2.22656 2.83594V3.41406ZM6.36719 9.21094C6.36719 8.51302 6.59375 7.94792 7.04688 7.51562C7.5 7.08333 8.07812 6.86719 8.78125 6.86719C9.48958 6.86719 10.0677 7.08333 10.5156 7.51562C10.9688 7.94792 11.1953 8.53125 11.1953 9.26562V9.82031C11.1953 10.4974 10.9766 11.0573 10.5391 11.5C10.1068 11.9375 9.52604 12.1562 8.79688 12.1562C8.06771 12.1562 7.47917 11.9401 7.03125 11.5078C6.58854 11.0703 6.36719 10.4948 6.36719 9.78125V9.21094ZM7.69531 9.82031C7.69531 10.1745 7.79688 10.4661 8 10.6953C8.20833 10.9193 8.47396 11.0312 8.79688 11.0312C9.13021 11.0312 9.39062 10.9245 9.57812 10.7109C9.77083 10.4922 9.86719 10.1875 9.86719 9.79688V9.21094C9.86719 8.84635 9.76562 8.55469 9.5625 8.33594C9.35938 8.11719 9.09896 8.00781 8.78125 8.00781C8.45833 8.00781 8.19531 8.11719 7.99219 8.33594C7.79427 8.55469 7.69531 8.85677 7.69531 9.24219V9.82031ZM3.71094 11.1484L2.73438 10.5859L8.28906 1.69531L9.26562 2.25781L3.71094 11.1484Z" fill="#929ECC"/>
</svg>
