<svg width="12" height="13" viewBox="0 0 12 13" fill="none" xmlns="http://www.w3.org/2000/svg">
<circle cx="6" cy="6.2002" r="6" fill="#37447E"/>
<path d="M5.53502 6.6252C5.92002 5.9302 6.66002 5.5202 7.09002 4.9052C7.54502 4.2602 7.29002 3.0552 6.00002 3.0552C5.15502 3.0552 4.74002 3.6952 4.56502 4.2252L3.27002 3.6802C3.62502 2.6152 4.59002 1.7002 5.99502 1.7002C7.17002 1.7002 7.97502 2.2352 8.38502 2.9052C8.73502 3.4802 8.94002 4.5552 8.40002 5.3552C7.80002 6.2402 7.22502 6.5102 6.91502 7.0802C6.79002 7.3102 6.74002 7.4602 6.74002 8.2002H5.29502C5.29002 7.8102 5.23002 7.1752 5.53502 6.6252ZM7.00002 10.2002C7.00002 10.7502 6.55002 11.2002 6.00002 11.2002C5.45002 11.2002 5.00002 10.7502 5.00002 10.2002C5.00002 9.6502 5.45002 9.2002 6.00002 9.2002C6.55002 9.2002 7.00002 9.6502 7.00002 10.2002Z" fill="white"/>
</svg>
