<svg width="19" height="12" viewBox="0 0 19 12" fill="none" xmlns="http://www.w3.org/2000/svg">
<path d="M9.375 2.21875H5.82812V12H3.86719V2.21875H0.351562V0.625H9.375V2.21875ZM10.875 12V0.625H14.7734C16.0599 0.625 17.0391 0.882812 17.7109 1.39844C18.3828 1.91406 18.7188 2.68229 18.7188 3.70312C18.7188 4.22396 18.5781 4.69271 18.2969 5.10938C18.0156 5.52604 17.6042 5.84896 17.0625 6.07812C17.6771 6.24479 18.151 6.5599 18.4844 7.02344C18.8229 7.48177 18.9922 8.03385 18.9922 8.67969C18.9922 9.7474 18.6484 10.5677 17.9609 11.1406C17.2786 11.7135 16.2995 12 15.0234 12H10.875ZM12.8516 6.86719V10.4219H15.0469C15.6667 10.4219 16.151 10.2682 16.5 9.96094C16.849 9.65365 17.0234 9.22656 17.0234 8.67969C17.0234 7.4974 16.4193 6.89323 15.2109 6.86719H12.8516ZM12.8516 5.41406H14.7891C15.4036 5.41406 15.8828 5.27604 16.2266 5C16.5755 4.71875 16.75 4.32292 16.75 3.8125C16.75 3.25 16.5885 2.84375 16.2656 2.59375C15.9479 2.34375 15.4505 2.21875 14.7734 2.21875H12.8516V5.41406Z" fill="#929ECC"/>
</svg>
